<svg width="1321" height="625" viewBox="0 0 1321 625" fill="none" xmlns="http://www.w3.org/2000/svg">
<g filter="url(#filter0_b_110_945)">
<rect y="144" width="1164" height="345" rx="34" fill="white"/>
<rect x="5" y="149" width="1154" height="335" rx="29" stroke="black" stroke-width="10"/>
</g>
<g filter="url(#filter1_f_110_945)">
<ellipse cx="1074.93" cy="292.109" rx="55.8787" ry="67.8907" fill="#FA00FF"/>
<ellipse cx="1108.12" cy="224.891" rx="55.8787" ry="67.8907" fill="#C4C4C4"/>
<ellipse cx="1108.12" cy="224.891" rx="55.8787" ry="67.8907" fill="#EBFF00"/>
<ellipse cx="1032.88" cy="224.891" rx="55.8787" ry="67.8907" fill="#00C2FF"/>
</g>
<g filter="url(#filter2_f_110_945)">
<ellipse cx="914.734" cy="409.474" rx="59.7633" ry="58.5265" fill="#FFB800"/>
<ellipse cx="950.237" cy="351.526" rx="59.7633" ry="58.5265" fill="#C4C4C4"/>
<ellipse cx="950.237" cy="351.526" rx="59.7633" ry="58.5265" fill="#EBFF00"/>
<ellipse cx="869.763" cy="351.526" rx="59.7633" ry="58.5265" fill="#CC00FF"/>
</g>
<path d="M111.805 214.773V220.258H93.9922V214.773H111.805ZM96.0781 200.875V235H89.0469V200.875H96.0781ZM116.82 200.875V235H109.812V200.875H116.82ZM129.641 209.641V235H122.867V209.641H129.641ZM122.445 203.031C122.445 202.047 122.789 201.234 123.477 200.594C124.164 199.953 125.086 199.633 126.242 199.633C127.383 199.633 128.297 199.953 128.984 200.594C129.688 201.234 130.039 202.047 130.039 203.031C130.039 204.016 129.688 204.828 128.984 205.469C128.297 206.109 127.383 206.43 126.242 206.43C125.086 206.43 124.164 206.109 123.477 205.469C122.789 204.828 122.445 204.016 122.445 203.031ZM142.836 200.875L142.062 224.57H136.438L135.641 200.875H142.836ZM135.453 231.906C135.453 230.906 135.797 230.078 136.484 229.422C137.188 228.75 138.109 228.414 139.25 228.414C140.406 228.414 141.328 228.75 142.016 229.422C142.703 230.078 143.047 230.906 143.047 231.906C143.047 232.875 142.703 233.695 142.016 234.367C141.328 235.039 140.406 235.375 139.25 235.375C138.109 235.375 137.188 235.039 136.484 234.367C135.797 233.695 135.453 232.875 135.453 231.906ZM167.281 209.641V235H160.508V209.641H167.281ZM160.086 203.031C160.086 202.047 160.43 201.234 161.117 200.594C161.805 199.953 162.727 199.633 163.883 199.633C165.023 199.633 165.938 199.953 166.625 200.594C167.328 201.234 167.68 202.047 167.68 203.031C167.68 204.016 167.328 204.828 166.625 205.469C165.938 206.109 165.023 206.43 163.883 206.43C162.727 206.43 161.805 206.109 161.117 205.469C160.43 204.828 160.086 204.016 160.086 203.031ZM179.023 199V202.562C179.023 203.578 178.828 204.625 178.438 205.703C178.062 206.781 177.555 207.805 176.914 208.773C176.273 209.727 175.57 210.539 174.805 211.211L171.641 209.383C172.219 208.461 172.711 207.461 173.117 206.383C173.523 205.289 173.727 204.023 173.727 202.586V199H179.023ZM190.156 214.891V235H183.383V209.641H189.734L190.156 214.891ZM189.219 221.43H187.344C187.344 219.664 187.555 218.039 187.977 216.555C188.414 215.055 189.047 213.758 189.875 212.664C190.719 211.555 191.758 210.695 192.992 210.086C194.227 209.477 195.656 209.172 197.281 209.172C198.406 209.172 199.438 209.344 200.375 209.688C201.312 210.016 202.117 210.539 202.789 211.258C203.477 211.961 204.008 212.883 204.383 214.023C204.758 215.148 204.945 216.5 204.945 218.078V235H198.195V218.828C198.195 217.672 198.039 216.781 197.727 216.156C197.414 215.531 196.969 215.094 196.391 214.844C195.828 214.594 195.148 214.469 194.352 214.469C193.477 214.469 192.711 214.648 192.055 215.008C191.414 215.367 190.883 215.867 190.461 216.508C190.039 217.133 189.727 217.867 189.523 218.711C189.32 219.555 189.219 220.461 189.219 221.43ZM204.312 220.656L201.898 220.961C201.898 219.305 202.102 217.766 202.508 216.344C202.93 214.922 203.547 213.672 204.359 212.594C205.188 211.516 206.211 210.68 207.43 210.086C208.648 209.477 210.055 209.172 211.648 209.172C212.867 209.172 213.977 209.352 214.977 209.711C215.977 210.055 216.828 210.609 217.531 211.375C218.25 212.125 218.797 213.109 219.172 214.328C219.562 215.547 219.758 217.039 219.758 218.805V235H212.984V218.805C212.984 217.633 212.828 216.742 212.516 216.133C212.219 215.508 211.781 215.078 211.203 214.844C210.641 214.594 209.969 214.469 209.188 214.469C208.375 214.469 207.664 214.633 207.055 214.961C206.445 215.273 205.938 215.711 205.531 216.273C205.125 216.836 204.82 217.492 204.617 218.242C204.414 218.977 204.312 219.781 204.312 220.656ZM101.352 283.875L109.391 256.875H117.219L105.336 291H100.18L101.352 283.875ZM93.9453 256.875L101.961 283.875L103.18 291H97.9766L86.1641 256.875H93.9453ZM127.109 255V291H120.336V255H127.109ZM146.375 285.281V273.984C146.375 273.172 146.242 272.477 145.977 271.898C145.711 271.305 145.297 270.844 144.734 270.516C144.188 270.188 143.477 270.023 142.602 270.023C141.852 270.023 141.203 270.156 140.656 270.422C140.109 270.672 139.688 271.039 139.391 271.523C139.094 271.992 138.945 272.547 138.945 273.188H132.195C132.195 272.109 132.445 271.086 132.945 270.117C133.445 269.148 134.172 268.297 135.125 267.562C136.078 266.812 137.211 266.227 138.523 265.805C139.852 265.383 141.336 265.172 142.977 265.172C144.945 265.172 146.695 265.5 148.227 266.156C149.758 266.812 150.961 267.797 151.836 269.109C152.727 270.422 153.172 272.062 153.172 274.031V284.883C153.172 286.273 153.258 287.414 153.43 288.305C153.602 289.18 153.852 289.945 154.18 290.602V291H147.359C147.031 290.312 146.781 289.453 146.609 288.422C146.453 287.375 146.375 286.328 146.375 285.281ZM147.266 275.555L147.312 279.375H143.539C142.648 279.375 141.875 279.477 141.219 279.68C140.562 279.883 140.023 280.172 139.602 280.547C139.18 280.906 138.867 281.328 138.664 281.812C138.477 282.297 138.383 282.828 138.383 283.406C138.383 283.984 138.516 284.508 138.781 284.977C139.047 285.43 139.43 285.789 139.93 286.055C140.43 286.305 141.016 286.43 141.688 286.43C142.703 286.43 143.586 286.227 144.336 285.82C145.086 285.414 145.664 284.914 146.07 284.32C146.492 283.727 146.711 283.164 146.727 282.633L148.508 285.492C148.258 286.133 147.914 286.797 147.477 287.484C147.055 288.172 146.516 288.82 145.859 289.43C145.203 290.023 144.414 290.516 143.492 290.906C142.57 291.281 141.477 291.469 140.211 291.469C138.602 291.469 137.141 291.148 135.828 290.508C134.531 289.852 133.5 288.953 132.734 287.812C131.984 286.656 131.609 285.344 131.609 283.875C131.609 282.547 131.859 281.367 132.359 280.336C132.859 279.305 133.594 278.438 134.562 277.734C135.547 277.016 136.773 276.477 138.242 276.117C139.711 275.742 141.414 275.555 143.352 275.555H147.266ZM173.352 285.469V255H180.148V291H174.031L173.352 285.469ZM157.32 278.625V278.133C157.32 276.195 157.539 274.438 157.977 272.859C158.414 271.266 159.055 269.898 159.898 268.758C160.742 267.617 161.781 266.734 163.016 266.109C164.25 265.484 165.656 265.172 167.234 265.172C168.719 265.172 170.016 265.484 171.125 266.109C172.25 266.734 173.203 267.625 173.984 268.781C174.781 269.922 175.422 271.273 175.906 272.836C176.391 274.383 176.742 276.078 176.961 277.922V279C176.742 280.766 176.391 282.406 175.906 283.922C175.422 285.438 174.781 286.766 173.984 287.906C173.203 289.031 172.25 289.906 171.125 290.531C170 291.156 168.688 291.469 167.188 291.469C165.609 291.469 164.203 291.148 162.969 290.508C161.75 289.867 160.719 288.969 159.875 287.812C159.047 286.656 158.414 285.297 157.977 283.734C157.539 282.172 157.32 280.469 157.32 278.625ZM164.07 278.133V278.625C164.07 279.672 164.148 280.648 164.305 281.555C164.477 282.461 164.75 283.266 165.125 283.969C165.516 284.656 166.016 285.195 166.625 285.586C167.25 285.961 168.008 286.148 168.898 286.148C170.055 286.148 171.008 285.891 171.758 285.375C172.508 284.844 173.078 284.117 173.469 283.195C173.875 282.273 174.109 281.211 174.172 280.008V276.938C174.125 275.953 173.984 275.07 173.75 274.289C173.531 273.492 173.203 272.812 172.766 272.25C172.344 271.688 171.812 271.25 171.172 270.938C170.547 270.625 169.805 270.469 168.945 270.469C168.07 270.469 167.32 270.672 166.695 271.078C166.07 271.469 165.562 272.008 165.172 272.695C164.797 273.383 164.516 274.195 164.328 275.133C164.156 276.055 164.07 277.055 164.07 278.133ZM192.945 288.141L199.672 265.641H206.914L196.719 294.82C196.5 295.461 196.203 296.148 195.828 296.883C195.469 297.617 194.977 298.312 194.352 298.969C193.742 299.641 192.969 300.188 192.031 300.609C191.109 301.031 189.977 301.242 188.633 301.242C187.992 301.242 187.469 301.203 187.062 301.125C186.656 301.047 186.172 300.938 185.609 300.797V295.852C185.781 295.852 185.961 295.852 186.148 295.852C186.336 295.867 186.516 295.875 186.688 295.875C187.578 295.875 188.305 295.773 188.867 295.57C189.43 295.367 189.883 295.055 190.227 294.633C190.57 294.227 190.844 293.695 191.047 293.039L192.945 288.141ZM190.133 265.641L195.641 284.016L196.602 291.164L192.008 291.656L182.891 265.641H190.133ZM223.32 283.992C223.32 283.508 223.18 283.07 222.898 282.68C222.617 282.289 222.094 281.93 221.328 281.602C220.578 281.258 219.492 280.945 218.07 280.664C216.789 280.383 215.594 280.031 214.484 279.609C213.391 279.172 212.438 278.648 211.625 278.039C210.828 277.43 210.203 276.711 209.75 275.883C209.297 275.039 209.07 274.078 209.07 273C209.07 271.938 209.297 270.938 209.75 270C210.219 269.062 210.883 268.234 211.742 267.516C212.617 266.781 213.68 266.211 214.93 265.805C216.195 265.383 217.617 265.172 219.195 265.172C221.398 265.172 223.289 265.523 224.867 266.227C226.461 266.93 227.68 267.898 228.523 269.133C229.383 270.352 229.812 271.742 229.812 273.305H223.062C223.062 272.648 222.922 272.062 222.641 271.547C222.375 271.016 221.953 270.602 221.375 270.305C220.812 269.992 220.078 269.836 219.172 269.836C218.422 269.836 217.773 269.969 217.227 270.234C216.68 270.484 216.258 270.828 215.961 271.266C215.68 271.688 215.539 272.156 215.539 272.672C215.539 273.062 215.617 273.414 215.773 273.727C215.945 274.023 216.219 274.297 216.594 274.547C216.969 274.797 217.453 275.031 218.047 275.25C218.656 275.453 219.406 275.641 220.297 275.812C222.125 276.188 223.758 276.68 225.195 277.289C226.633 277.883 227.773 278.695 228.617 279.727C229.461 280.742 229.883 282.078 229.883 283.734C229.883 284.859 229.633 285.891 229.133 286.828C228.633 287.766 227.914 288.586 226.977 289.289C226.039 289.977 224.914 290.516 223.602 290.906C222.305 291.281 220.844 291.469 219.219 291.469C216.859 291.469 214.859 291.047 213.219 290.203C211.594 289.359 210.359 288.289 209.516 286.992C208.688 285.68 208.273 284.336 208.273 282.961H214.672C214.703 283.883 214.938 284.625 215.375 285.188C215.828 285.75 216.398 286.156 217.086 286.406C217.789 286.656 218.547 286.781 219.359 286.781C220.234 286.781 220.961 286.664 221.539 286.43C222.117 286.18 222.555 285.852 222.852 285.445C223.164 285.023 223.32 284.539 223.32 283.992ZM241.391 255V291H234.617V255H241.391ZM260.656 285.281V273.984C260.656 273.172 260.523 272.477 260.258 271.898C259.992 271.305 259.578 270.844 259.016 270.516C258.469 270.188 257.758 270.023 256.883 270.023C256.133 270.023 255.484 270.156 254.938 270.422C254.391 270.672 253.969 271.039 253.672 271.523C253.375 271.992 253.227 272.547 253.227 273.188H246.477C246.477 272.109 246.727 271.086 247.227 270.117C247.727 269.148 248.453 268.297 249.406 267.562C250.359 266.812 251.492 266.227 252.805 265.805C254.133 265.383 255.617 265.172 257.258 265.172C259.227 265.172 260.977 265.5 262.508 266.156C264.039 266.812 265.242 267.797 266.117 269.109C267.008 270.422 267.453 272.062 267.453 274.031V284.883C267.453 286.273 267.539 287.414 267.711 288.305C267.883 289.18 268.133 289.945 268.461 290.602V291H261.641C261.312 290.312 261.062 289.453 260.891 288.422C260.734 287.375 260.656 286.328 260.656 285.281ZM261.547 275.555L261.594 279.375H257.82C256.93 279.375 256.156 279.477 255.5 279.68C254.844 279.883 254.305 280.172 253.883 280.547C253.461 280.906 253.148 281.328 252.945 281.812C252.758 282.297 252.664 282.828 252.664 283.406C252.664 283.984 252.797 284.508 253.062 284.977C253.328 285.43 253.711 285.789 254.211 286.055C254.711 286.305 255.297 286.43 255.969 286.43C256.984 286.43 257.867 286.227 258.617 285.82C259.367 285.414 259.945 284.914 260.352 284.32C260.773 283.727 260.992 283.164 261.008 282.633L262.789 285.492C262.539 286.133 262.195 286.797 261.758 287.484C261.336 288.172 260.797 288.82 260.141 289.43C259.484 290.023 258.695 290.516 257.773 290.906C256.852 291.281 255.758 291.469 254.492 291.469C252.883 291.469 251.422 291.148 250.109 290.508C248.812 289.852 247.781 288.953 247.016 287.812C246.266 286.656 245.891 285.344 245.891 283.875C245.891 282.547 246.141 281.367 246.641 280.336C247.141 279.305 247.875 278.438 248.844 277.734C249.828 277.016 251.055 276.477 252.523 276.117C253.992 275.742 255.695 275.555 257.633 275.555H261.547ZM280.906 286.078L286.531 265.641H293.586L285.031 291H280.766L280.906 286.078ZM277.039 265.641L282.688 286.102L282.805 291H278.516L269.961 265.641H277.039ZM326.75 282.07C326.75 281.461 326.656 280.914 326.469 280.43C326.297 279.93 325.969 279.477 325.484 279.07C325 278.648 324.32 278.234 323.445 277.828C322.57 277.422 321.438 277 320.047 276.562C318.5 276.062 317.031 275.5 315.641 274.875C314.266 274.25 313.047 273.523 311.984 272.695C310.938 271.852 310.109 270.875 309.5 269.766C308.906 268.656 308.609 267.367 308.609 265.898C308.609 264.477 308.922 263.188 309.547 262.031C310.172 260.859 311.047 259.859 312.172 259.031C313.297 258.188 314.625 257.539 316.156 257.086C317.703 256.633 319.398 256.406 321.242 256.406C323.758 256.406 325.953 256.859 327.828 257.766C329.703 258.672 331.156 259.914 332.188 261.492C333.234 263.07 333.758 264.875 333.758 266.906H326.773C326.773 265.906 326.562 265.031 326.141 264.281C325.734 263.516 325.109 262.914 324.266 262.477C323.438 262.039 322.391 261.82 321.125 261.82C319.906 261.82 318.891 262.008 318.078 262.383C317.266 262.742 316.656 263.234 316.25 263.859C315.844 264.469 315.641 265.156 315.641 265.922C315.641 266.5 315.781 267.023 316.062 267.492C316.359 267.961 316.797 268.398 317.375 268.805C317.953 269.211 318.664 269.594 319.508 269.953C320.352 270.312 321.328 270.664 322.438 271.008C324.297 271.57 325.93 272.203 327.336 272.906C328.758 273.609 329.945 274.398 330.898 275.273C331.852 276.148 332.57 277.141 333.055 278.25C333.539 279.359 333.781 280.617 333.781 282.023C333.781 283.508 333.492 284.836 332.914 286.008C332.336 287.18 331.5 288.172 330.406 288.984C329.312 289.797 328.008 290.414 326.492 290.836C324.977 291.258 323.281 291.469 321.406 291.469C319.719 291.469 318.055 291.25 316.414 290.812C314.773 290.359 313.281 289.68 311.938 288.773C310.609 287.867 309.547 286.711 308.75 285.305C307.953 283.898 307.555 282.234 307.555 280.312H314.609C314.609 281.375 314.773 282.273 315.102 283.008C315.43 283.742 315.891 284.336 316.484 284.789C317.094 285.242 317.812 285.57 318.641 285.773C319.484 285.977 320.406 286.078 321.406 286.078C322.625 286.078 323.625 285.906 324.406 285.562C325.203 285.219 325.789 284.742 326.164 284.133C326.555 283.523 326.75 282.836 326.75 282.07ZM349.812 291.469C347.844 291.469 346.078 291.156 344.516 290.531C342.953 289.891 341.625 289.008 340.531 287.883C339.453 286.758 338.625 285.453 338.047 283.969C337.469 282.469 337.18 280.875 337.18 279.188V278.25C337.18 276.328 337.453 274.57 338 272.977C338.547 271.383 339.328 270 340.344 268.828C341.375 267.656 342.625 266.758 344.094 266.133C345.562 265.492 347.219 265.172 349.062 265.172C350.859 265.172 352.453 265.469 353.844 266.062C355.234 266.656 356.398 267.5 357.336 268.594C358.289 269.688 359.008 271 359.492 272.531C359.977 274.047 360.219 275.734 360.219 277.594V280.406H340.062V275.906H353.586V275.391C353.586 274.453 353.414 273.617 353.07 272.883C352.742 272.133 352.242 271.539 351.57 271.102C350.898 270.664 350.039 270.445 348.992 270.445C348.102 270.445 347.336 270.641 346.695 271.031C346.055 271.422 345.531 271.969 345.125 272.672C344.734 273.375 344.438 274.203 344.234 275.156C344.047 276.094 343.953 277.125 343.953 278.25V279.188C343.953 280.203 344.094 281.141 344.375 282C344.672 282.859 345.086 283.602 345.617 284.227C346.164 284.852 346.82 285.336 347.586 285.68C348.367 286.023 349.25 286.195 350.234 286.195C351.453 286.195 352.586 285.961 353.633 285.492C354.695 285.008 355.609 284.281 356.375 283.312L359.656 286.875C359.125 287.641 358.398 288.375 357.477 289.078C356.57 289.781 355.477 290.359 354.195 290.812C352.914 291.25 351.453 291.469 349.812 291.469ZM370.812 270.891V291H364.039V265.641H370.391L370.812 270.891ZM369.875 277.43H368C368 275.664 368.211 274.039 368.633 272.555C369.07 271.055 369.703 269.758 370.531 268.664C371.375 267.555 372.414 266.695 373.648 266.086C374.883 265.477 376.312 265.172 377.938 265.172C379.062 265.172 380.094 265.344 381.031 265.688C381.969 266.016 382.773 266.539 383.445 267.258C384.133 267.961 384.664 268.883 385.039 270.023C385.414 271.148 385.602 272.5 385.602 274.078V291H378.852V274.828C378.852 273.672 378.695 272.781 378.383 272.156C378.07 271.531 377.625 271.094 377.047 270.844C376.484 270.594 375.805 270.469 375.008 270.469C374.133 270.469 373.367 270.648 372.711 271.008C372.07 271.367 371.539 271.867 371.117 272.508C370.695 273.133 370.383 273.867 370.18 274.711C369.977 275.555 369.875 276.461 369.875 277.43ZM384.969 276.656L382.555 276.961C382.555 275.305 382.758 273.766 383.164 272.344C383.586 270.922 384.203 269.672 385.016 268.594C385.844 267.516 386.867 266.68 388.086 266.086C389.305 265.477 390.711 265.172 392.305 265.172C393.523 265.172 394.633 265.352 395.633 265.711C396.633 266.055 397.484 266.609 398.188 267.375C398.906 268.125 399.453 269.109 399.828 270.328C400.219 271.547 400.414 273.039 400.414 274.805V291H393.641V274.805C393.641 273.633 393.484 272.742 393.172 272.133C392.875 271.508 392.438 271.078 391.859 270.844C391.297 270.594 390.625 270.469 389.844 270.469C389.031 270.469 388.32 270.633 387.711 270.961C387.102 271.273 386.594 271.711 386.188 272.273C385.781 272.836 385.477 273.492 385.273 274.242C385.07 274.977 384.969 275.781 384.969 276.656ZM417.312 291.469C415.344 291.469 413.578 291.156 412.016 290.531C410.453 289.891 409.125 289.008 408.031 287.883C406.953 286.758 406.125 285.453 405.547 283.969C404.969 282.469 404.68 280.875 404.68 279.188V278.25C404.68 276.328 404.953 274.57 405.5 272.977C406.047 271.383 406.828 270 407.844 268.828C408.875 267.656 410.125 266.758 411.594 266.133C413.062 265.492 414.719 265.172 416.562 265.172C418.359 265.172 419.953 265.469 421.344 266.062C422.734 266.656 423.898 267.5 424.836 268.594C425.789 269.688 426.508 271 426.992 272.531C427.477 274.047 427.719 275.734 427.719 277.594V280.406H407.562V275.906H421.086V275.391C421.086 274.453 420.914 273.617 420.57 272.883C420.242 272.133 419.742 271.539 419.07 271.102C418.398 270.664 417.539 270.445 416.492 270.445C415.602 270.445 414.836 270.641 414.195 271.031C413.555 271.422 413.031 271.969 412.625 272.672C412.234 273.375 411.938 274.203 411.734 275.156C411.547 276.094 411.453 277.125 411.453 278.25V279.188C411.453 280.203 411.594 281.141 411.875 282C412.172 282.859 412.586 283.602 413.117 284.227C413.664 284.852 414.32 285.336 415.086 285.68C415.867 286.023 416.75 286.195 417.734 286.195C418.953 286.195 420.086 285.961 421.133 285.492C422.195 285.008 423.109 284.281 423.875 283.312L427.156 286.875C426.625 287.641 425.898 288.375 424.977 289.078C424.07 289.781 422.977 290.359 421.695 290.812C420.414 291.25 418.953 291.469 417.312 291.469ZM438.172 271.055V291H431.422V265.641H437.75L438.172 271.055ZM437.188 277.43H435.359C435.359 275.555 435.602 273.867 436.086 272.367C436.57 270.852 437.25 269.562 438.125 268.5C439 267.422 440.039 266.602 441.242 266.039C442.461 265.461 443.82 265.172 445.32 265.172C446.508 265.172 447.594 265.344 448.578 265.688C449.562 266.031 450.406 266.578 451.109 267.328C451.828 268.078 452.375 269.07 452.75 270.305C453.141 271.539 453.336 273.047 453.336 274.828V291H446.539V274.805C446.539 273.68 446.383 272.805 446.07 272.18C445.758 271.555 445.297 271.117 444.688 270.867C444.094 270.602 443.359 270.469 442.484 270.469C441.578 270.469 440.789 270.648 440.117 271.008C439.461 271.367 438.914 271.867 438.477 272.508C438.055 273.133 437.734 273.867 437.516 274.711C437.297 275.555 437.188 276.461 437.188 277.43ZM465.594 265.641V291H458.82V265.641H465.594ZM458.398 259.031C458.398 258.047 458.742 257.234 459.43 256.594C460.117 255.953 461.039 255.633 462.195 255.633C463.336 255.633 464.25 255.953 464.938 256.594C465.641 257.234 465.992 258.047 465.992 259.031C465.992 260.016 465.641 260.828 464.938 261.469C464.25 262.109 463.336 262.43 462.195 262.43C461.039 262.43 460.117 262.109 459.43 261.469C458.742 260.828 458.398 260.016 458.398 259.031ZM486.172 284.93V265.641H492.922V291H486.57L486.172 284.93ZM486.922 279.727L488.914 279.68C488.914 281.367 488.719 282.938 488.328 284.391C487.938 285.828 487.352 287.078 486.57 288.141C485.789 289.188 484.805 290.008 483.617 290.602C482.43 291.18 481.031 291.469 479.422 291.469C478.188 291.469 477.047 291.297 476 290.953C474.969 290.594 474.078 290.039 473.328 289.289C472.594 288.523 472.016 287.547 471.594 286.359C471.188 285.156 470.984 283.711 470.984 282.023V265.641H477.734V282.07C477.734 282.82 477.82 283.453 477.992 283.969C478.18 284.484 478.438 284.906 478.766 285.234C479.094 285.562 479.477 285.797 479.914 285.938C480.367 286.078 480.867 286.148 481.414 286.148C482.805 286.148 483.898 285.867 484.695 285.305C485.508 284.742 486.078 283.977 486.406 283.008C486.75 282.023 486.922 280.93 486.922 279.727ZM504.828 254.977V291H498.078V254.977H504.828ZM520.812 265.641L509.797 278.203L503.891 284.18L501.43 279.305L506.117 273.352L512.703 265.641H520.812ZM513.805 291L506.305 279.281L510.969 275.203L521.586 291H513.805Z" fill="black"/>
<rect opacity="0.5" x="86" y="317" width="189" height="7" rx="3.5" fill="url(#paint0_linear_110_945)"/>
<rect opacity="0.5" x="86" y="317" width="189" height="7" rx="3.5" fill="url(#paint1_linear_110_945)"/>
<g opacity="0.5" filter="url(#filter3_f_110_945)">
<rect x="86" y="317" width="189" height="7" rx="3.5" fill="url(#paint2_linear_110_945)"/>
</g>
<g opacity="0.5" filter="url(#filter4_f_110_945)">
<rect x="87" y="317" width="189" height="7" rx="3.5" fill="url(#paint3_linear_110_945)"/>
</g>
<path d="M91.4 393V353.4H113.648V360.216H97.304L99.176 358.512V371.904L97.304 369.744H112.568V376.56H97.304L99.176 374.4V393H91.4ZM120.438 393V368.424H127.806V371.952C128.718 370.576 129.83 369.52 131.142 368.784C132.47 368.032 133.894 367.656 135.414 367.656C136.278 367.656 137.174 367.784 138.102 368.04C139.03 368.296 139.806 368.624 140.43 369.024L137.358 375.24C136.814 374.872 136.174 374.584 135.438 374.376C134.718 374.152 134.046 374.04 133.422 374.04C132.462 374.04 131.55 374.288 130.686 374.784C129.822 375.28 129.126 375.928 128.598 376.728C128.07 377.512 127.806 378.36 127.806 379.272V393H120.438ZM156.49 393.768C153.786 393.768 151.346 393.216 149.17 392.112C146.994 390.992 145.266 389.456 143.986 387.504C142.706 385.536 142.066 383.272 142.066 380.712C142.066 378.152 142.698 375.896 143.962 373.944C145.242 371.976 146.97 370.44 149.146 369.336C151.338 368.216 153.786 367.656 156.49 367.656C159.21 367.656 161.658 368.216 163.834 369.336C166.01 370.44 167.73 371.976 168.994 373.944C170.274 375.896 170.914 378.152 170.914 380.712C170.914 383.272 170.274 385.536 168.994 387.504C167.73 389.456 166.01 390.992 163.834 392.112C161.658 393.216 159.21 393.768 156.49 393.768ZM156.514 387.48C157.762 387.48 158.898 387.192 159.922 386.616C160.946 386.04 161.754 385.248 162.346 384.24C162.938 383.216 163.234 382.04 163.234 380.712C163.234 379.384 162.938 378.216 162.346 377.208C161.754 376.184 160.946 375.384 159.922 374.808C158.898 374.232 157.762 373.944 156.514 373.944C155.25 373.944 154.106 374.232 153.082 374.808C152.074 375.384 151.274 376.184 150.682 377.208C150.09 378.216 149.794 379.384 149.794 380.712C149.794 382.04 150.09 383.216 150.682 384.24C151.274 385.248 152.074 386.04 153.082 386.616C154.106 387.192 155.25 387.48 156.514 387.48ZM177.344 393V368.424H184.712V371.16C185.656 370.104 186.832 369.256 188.24 368.616C189.664 367.976 191.232 367.656 192.944 367.656C194.832 367.656 196.488 368.072 197.912 368.904C199.352 369.72 200.48 370.864 201.296 372.336C202.112 373.792 202.52 375.496 202.52 377.448V393H195.152V379.008C195.152 377.248 194.688 375.88 193.76 374.904C192.848 373.912 191.592 373.416 189.992 373.416C188.904 373.416 187.96 373.64 187.16 374.088C186.376 374.52 185.768 375.12 185.336 375.888C184.92 376.64 184.712 377.496 184.712 378.456V393H177.344ZM218.91 393.768C216.462 393.768 214.558 392.992 213.198 391.44C211.838 389.872 211.158 387.688 211.158 384.888V374.016H207.87V368.424H211.158V359.208H218.526V368.424H223.926V374.016H218.526V384.36C218.526 385.288 218.71 385.992 219.078 386.472C219.462 386.952 219.998 387.192 220.686 387.192C221.454 387.192 222.19 386.936 222.894 386.424L224.742 392.328C223.91 392.776 222.974 393.128 221.934 393.384C220.91 393.64 219.902 393.768 218.91 393.768ZM231.11 382.272V375.936H246.566V382.272H231.11ZM267.058 393.768C264.402 393.768 262.018 393.2 259.906 392.064C257.81 390.912 256.146 389.352 254.914 387.384C253.682 385.416 253.066 383.192 253.066 380.712C253.066 378.888 253.41 377.184 254.098 375.6C254.802 374.016 255.778 372.632 257.026 371.448C258.274 370.248 259.722 369.32 261.37 368.664C263.018 367.992 264.802 367.656 266.722 367.656C269.282 367.656 271.522 368.192 273.442 369.264C275.378 370.32 276.882 371.792 277.954 373.68C279.042 375.568 279.586 377.768 279.586 380.28C279.586 380.488 279.578 380.672 279.562 380.832C279.562 380.976 279.538 381.256 279.49 381.672H260.65C260.65 382.92 260.93 384.008 261.49 384.936C262.066 385.864 262.866 386.592 263.89 387.12C264.914 387.632 266.106 387.888 267.466 387.888C268.746 387.888 269.874 387.64 270.85 387.144C271.842 386.648 272.794 385.856 273.706 384.768L279.01 387.432C277.858 389.416 276.226 390.968 274.114 392.088C272.002 393.208 269.65 393.768 267.058 393.768ZM260.914 377.592H272.338C272.178 376.648 271.834 375.832 271.306 375.144C270.794 374.456 270.138 373.928 269.338 373.56C268.538 373.192 267.634 373.008 266.626 373.008C265.554 373.008 264.61 373.192 263.794 373.56C262.978 373.928 262.322 374.456 261.826 375.144C261.33 375.832 261.026 376.648 260.914 377.592ZM286.141 393V368.424H293.509V371.16C294.453 370.104 295.629 369.256 297.037 368.616C298.461 367.976 300.029 367.656 301.741 367.656C303.629 367.656 305.285 368.072 306.709 368.904C308.149 369.72 309.277 370.864 310.093 372.336C310.909 373.792 311.317 375.496 311.317 377.448V393H303.949V379.008C303.949 377.248 303.485 375.88 302.557 374.904C301.645 373.912 300.389 373.416 298.789 373.416C297.701 373.416 296.757 373.64 295.957 374.088C295.173 374.52 294.565 375.12 294.133 375.888C293.717 376.64 293.509 377.496 293.509 378.456V393H286.141ZM329.692 393.768C327.468 393.768 325.436 393.216 323.596 392.112C321.772 390.992 320.316 389.448 319.228 387.48C318.14 385.512 317.596 383.256 317.596 380.712C317.596 378.216 318.124 375.992 319.18 374.04C320.236 372.072 321.684 370.52 323.524 369.384C325.38 368.232 327.5 367.656 329.884 367.656C331.612 367.656 333.212 367.992 334.684 368.664C336.156 369.32 337.38 370.24 338.356 371.424V351.72H345.724V393H338.356V389.76C337.268 391.024 335.98 392.008 334.492 392.712C333.004 393.416 331.404 393.768 329.692 393.768ZM331.9 387.504C333.196 387.504 334.34 387.216 335.332 386.64C336.324 386.048 337.1 385.24 337.66 384.216C338.236 383.192 338.524 382.032 338.524 380.736C338.524 379.424 338.236 378.256 337.66 377.232C337.1 376.208 336.324 375.4 335.332 374.808C334.34 374.216 333.204 373.92 331.924 373.92C330.66 373.92 329.532 374.216 328.54 374.808C327.564 375.4 326.788 376.216 326.212 377.256C325.636 378.28 325.348 379.448 325.348 380.76C325.348 382.056 325.628 383.216 326.188 384.24C326.748 385.248 327.524 386.048 328.516 386.64C329.508 387.216 330.636 387.504 331.9 387.504ZM377.504 393.768C375.28 393.768 373.248 393.216 371.408 392.112C369.584 390.992 368.128 389.448 367.04 387.48C365.952 385.512 365.408 383.256 365.408 380.712C365.408 378.216 365.936 375.992 366.992 374.04C368.048 372.072 369.496 370.52 371.336 369.384C373.192 368.232 375.312 367.656 377.696 367.656C379.424 367.656 381.024 367.992 382.496 368.664C383.968 369.32 385.192 370.24 386.168 371.424V351.72H393.536V393H386.168V389.76C385.08 391.024 383.792 392.008 382.304 392.712C380.816 393.416 379.216 393.768 377.504 393.768ZM379.712 387.504C381.008 387.504 382.152 387.216 383.144 386.64C384.136 386.048 384.912 385.24 385.472 384.216C386.048 383.192 386.336 382.032 386.336 380.736C386.336 379.424 386.048 378.256 385.472 377.232C384.912 376.208 384.136 375.4 383.144 374.808C382.152 374.216 381.016 373.92 379.736 373.92C378.472 373.92 377.344 374.216 376.352 374.808C375.376 375.4 374.6 376.216 374.024 377.256C373.448 378.28 373.16 379.448 373.16 380.76C373.16 382.056 373.44 383.216 374 384.24C374.56 385.248 375.336 386.048 376.328 386.64C377.32 387.216 378.448 387.504 379.712 387.504ZM414.011 393.768C411.355 393.768 408.971 393.2 406.859 392.064C404.763 390.912 403.099 389.352 401.867 387.384C400.635 385.416 400.019 383.192 400.019 380.712C400.019 378.888 400.363 377.184 401.051 375.6C401.755 374.016 402.731 372.632 403.979 371.448C405.227 370.248 406.675 369.32 408.323 368.664C409.971 367.992 411.755 367.656 413.675 367.656C416.235 367.656 418.475 368.192 420.395 369.264C422.331 370.32 423.835 371.792 424.907 373.68C425.995 375.568 426.539 377.768 426.539 380.28C426.539 380.488 426.531 380.672 426.515 380.832C426.515 380.976 426.491 381.256 426.443 381.672H407.603C407.603 382.92 407.883 384.008 408.443 384.936C409.019 385.864 409.819 386.592 410.843 387.12C411.867 387.632 413.059 387.888 414.419 387.888C415.699 387.888 416.827 387.64 417.803 387.144C418.795 386.648 419.747 385.856 420.659 384.768L425.963 387.432C424.811 389.416 423.179 390.968 421.067 392.088C418.955 393.208 416.603 393.768 414.011 393.768ZM407.867 377.592H419.291C419.131 376.648 418.787 375.832 418.259 375.144C417.747 374.456 417.091 373.928 416.291 373.56C415.491 373.192 414.587 373.008 413.579 373.008C412.507 373.008 411.563 373.192 410.747 373.56C409.931 373.928 409.275 374.456 408.779 375.144C408.283 375.832 407.979 376.648 407.867 377.592ZM441.209 393L428.297 368.424H436.985L443.681 383.256L450.377 368.424H459.065L446.129 393H441.209ZM474.761 393.768C472.105 393.768 469.721 393.2 467.609 392.064C465.513 390.912 463.849 389.352 462.617 387.384C461.385 385.416 460.769 383.192 460.769 380.712C460.769 378.888 461.113 377.184 461.801 375.6C462.505 374.016 463.481 372.632 464.729 371.448C465.977 370.248 467.425 369.32 469.073 368.664C470.721 367.992 472.505 367.656 474.425 367.656C476.985 367.656 479.225 368.192 481.145 369.264C483.081 370.32 484.585 371.792 485.657 373.68C486.745 375.568 487.289 377.768 487.289 380.28C487.289 380.488 487.281 380.672 487.265 380.832C487.265 380.976 487.241 381.256 487.193 381.672H468.353C468.353 382.92 468.633 384.008 469.193 384.936C469.769 385.864 470.569 386.592 471.593 387.12C472.617 387.632 473.809 387.888 475.169 387.888C476.449 387.888 477.577 387.64 478.553 387.144C479.545 386.648 480.497 385.856 481.409 384.768L486.713 387.432C485.561 389.416 483.929 390.968 481.817 392.088C479.705 393.208 477.353 393.768 474.761 393.768ZM468.617 377.592H480.041C479.881 376.648 479.537 375.832 479.009 375.144C478.497 374.456 477.841 373.928 477.041 373.56C476.241 373.192 475.337 373.008 474.329 373.008C473.257 373.008 472.313 373.192 471.497 373.56C470.681 373.928 470.025 374.456 469.529 375.144C469.033 375.832 468.729 376.648 468.617 377.592ZM493.844 393V351.72H501.212V393H493.844ZM522.115 393.768C519.411 393.768 516.971 393.216 514.795 392.112C512.619 390.992 510.891 389.456 509.611 387.504C508.331 385.536 507.691 383.272 507.691 380.712C507.691 378.152 508.323 375.896 509.587 373.944C510.867 371.976 512.595 370.44 514.771 369.336C516.963 368.216 519.411 367.656 522.115 367.656C524.835 367.656 527.283 368.216 529.459 369.336C531.635 370.44 533.355 371.976 534.619 373.944C535.899 375.896 536.539 378.152 536.539 380.712C536.539 383.272 535.899 385.536 534.619 387.504C533.355 389.456 531.635 390.992 529.459 392.112C527.283 393.216 524.835 393.768 522.115 393.768ZM522.139 387.48C523.387 387.48 524.523 387.192 525.547 386.616C526.571 386.04 527.379 385.248 527.971 384.24C528.563 383.216 528.859 382.04 528.859 380.712C528.859 379.384 528.563 378.216 527.971 377.208C527.379 376.184 526.571 375.384 525.547 374.808C524.523 374.232 523.387 373.944 522.139 373.944C520.875 373.944 519.731 374.232 518.707 374.808C517.699 375.384 516.899 376.184 516.307 377.208C515.715 378.216 515.419 379.384 515.419 380.712C515.419 382.04 515.715 383.216 516.307 384.24C516.899 385.248 517.699 386.04 518.707 386.616C519.731 387.192 520.875 387.48 522.139 387.48ZM542.969 405.48V368.424H550.337V371.424C551.329 370.224 552.561 369.296 554.033 368.64C555.505 367.984 557.089 367.656 558.785 367.656C561.153 367.656 563.257 368.224 565.097 369.36C566.953 370.496 568.409 372.048 569.465 374.016C570.537 375.984 571.073 378.216 571.073 380.712C571.073 383.176 570.545 385.4 569.489 387.384C568.433 389.352 566.985 390.912 565.145 392.064C563.321 393.2 561.257 393.768 558.953 393.768C557.273 393.768 555.689 393.424 554.201 392.736C552.713 392.032 551.425 391.04 550.337 389.76V405.48H542.969ZM556.769 387.504C558.049 387.504 559.177 387.216 560.153 386.64C561.145 386.048 561.921 385.248 562.481 384.24C563.041 383.216 563.321 382.048 563.321 380.736C563.321 379.424 563.033 378.256 562.457 377.232C561.881 376.208 561.105 375.4 560.129 374.808C559.153 374.216 558.033 373.92 556.769 373.92C555.505 373.92 554.369 374.216 553.361 374.808C552.369 375.4 551.585 376.208 551.009 377.232C550.433 378.24 550.145 379.408 550.145 380.736C550.145 382.032 550.425 383.192 550.985 384.216C551.561 385.24 552.353 386.048 553.361 386.64C554.369 387.216 555.505 387.504 556.769 387.504ZM589.652 393.768C586.996 393.768 584.612 393.2 582.5 392.064C580.404 390.912 578.74 389.352 577.508 387.384C576.276 385.416 575.66 383.192 575.66 380.712C575.66 378.888 576.004 377.184 576.692 375.6C577.396 374.016 578.372 372.632 579.62 371.448C580.868 370.248 582.316 369.32 583.964 368.664C585.612 367.992 587.396 367.656 589.316 367.656C591.876 367.656 594.116 368.192 596.036 369.264C597.972 370.32 599.476 371.792 600.548 373.68C601.636 375.568 602.18 377.768 602.18 380.28C602.18 380.488 602.172 380.672 602.156 380.832C602.156 380.976 602.132 381.256 602.084 381.672H583.244C583.244 382.92 583.524 384.008 584.084 384.936C584.66 385.864 585.46 386.592 586.484 387.12C587.508 387.632 588.7 387.888 590.06 387.888C591.34 387.888 592.468 387.64 593.444 387.144C594.436 386.648 595.388 385.856 596.3 384.768L601.604 387.432C600.452 389.416 598.82 390.968 596.708 392.088C594.596 393.208 592.244 393.768 589.652 393.768ZM583.508 377.592H594.932C594.772 376.648 594.428 375.832 593.9 375.144C593.388 374.456 592.732 373.928 591.932 373.56C591.132 373.192 590.228 373.008 589.22 373.008C588.148 373.008 587.204 373.192 586.388 373.56C585.572 373.928 584.916 374.456 584.42 375.144C583.924 375.832 583.62 376.648 583.508 377.592ZM608.735 393V368.424H616.103V371.952C617.015 370.576 618.127 369.52 619.439 368.784C620.767 368.032 622.191 367.656 623.711 367.656C624.575 367.656 625.471 367.784 626.399 368.04C627.327 368.296 628.103 368.624 628.727 369.024L625.655 375.24C625.111 374.872 624.471 374.584 623.735 374.376C623.015 374.152 622.343 374.04 621.719 374.04C620.759 374.04 619.847 374.288 618.983 374.784C618.119 375.28 617.423 375.928 616.895 376.728C616.367 377.512 616.103 378.36 616.103 379.272V393H608.735Z" fill="black"/>
<g clip-path="url(#clip0_110_945)">
<path d="M970.572 214.24C978.312 214.24 984.587 207.576 984.587 199.355C984.587 191.134 978.312 184.47 970.572 184.47C962.832 184.47 956.557 191.134 956.557 199.355C956.557 207.576 962.832 214.24 970.572 214.24Z" fill="#F2F2F2"/>
<path d="M1079.29 435.154C1100.12 418.302 1110.07 389.983 1103.84 362.969C1103.69 362.298 1103.53 361.629 1103.35 360.96C1099.23 344.925 1089.01 329.685 1074.12 324.562C1061.62 320.26 1047.97 323.568 1034.92 321.857C1009.32 318.499 989.468 296.495 975.5 273.457C961.532 250.418 950.797 224.631 932.237 205.598C901.643 174.225 851.738 167.47 813.806 187.892C775.874 208.313 751.712 253.619 752.743 298.772C753.773 343.926 779.012 387.095 815.665 410C829.13 418.414 844.703 424.375 860.202 422.289C873.65 420.479 885.869 412.805 899.253 410.526C920.297 406.944 941.207 417.049 959.408 428.825C977.609 440.6 995.19 454.558 1015.87 460.017C1035.96 465.318 1060.84 450.082 1079.29 435.154Z" fill="#F2F2F2"/>
<path d="M1049.36 188.84C1048.9 188.517 1048.44 188.21 1047.99 187.898C1034.79 178.931 1020.64 171.647 1005.83 166.195L1002.4 216.491H980.636V158.853C979.266 158.552 977.886 158.268 976.505 158V216.491H950.644C936.407 216.491 922.753 210.484 912.685 199.792C902.618 189.1 896.962 174.598 896.962 159.477C895.577 159.795 894.202 160.135 892.826 160.498V216.491H871.762L868.492 168.531C853.278 174.728 838.834 182.878 825.482 192.798C825.251 192.965 825.02 193.138 824.794 193.305C823.634 194.17 822.49 195.05 821.351 195.942V387.822H883.431L882.334 371.683L876.297 283.071H997.858L991.822 371.683L990.725 387.822H1052.12V190.78C1051.2 190.122 1050.29 189.476 1049.36 188.84ZM892.826 268.437H875.3L872.061 220.884H892.826V268.437ZM976.505 268.437H947.069V267.495C947.069 267.042 946.985 266.594 946.822 266.175C946.658 265.757 946.419 265.377 946.117 265.057C945.816 264.737 945.457 264.483 945.063 264.311C944.669 264.138 944.247 264.049 943.82 264.05H931.023C930.597 264.05 930.175 264.139 929.782 264.312C929.388 264.485 929.03 264.739 928.729 265.059C928.428 265.379 928.189 265.758 928.026 266.177C927.863 266.595 927.779 267.043 927.779 267.495V268.437H896.963V220.884H976.505V268.437ZM980.636 268.437V220.884H1002.1L998.861 268.437H980.636Z" fill="#3F3D56"/>
<path d="M730 400.11C734.56 405.848 739.492 411.241 744.76 416.249L1128.24 416.806C1133.51 411.799 1138.44 406.406 1143 400.667L730 400.11Z" fill="#3F3D56"/>
<path d="M990.05 348.431V396.21C990.051 396.819 990.278 397.402 990.684 397.833C991.089 398.264 991.639 398.506 992.212 398.506H1058.88C1059.45 398.506 1060 398.264 1060.4 397.833C1060.81 397.402 1061.04 396.819 1061.04 396.21V348.431C1061.04 347.823 1060.81 347.24 1060.4 346.81C1060 346.38 1059.45 346.138 1058.88 346.138H992.212C991.639 346.138 991.09 346.38 990.685 346.81C990.28 347.24 990.051 347.823 990.05 348.431Z" fill="#3F3D56"/>
<path d="M991.614 349.026V395.62C991.615 395.946 991.736 396.258 991.953 396.488C992.17 396.718 992.463 396.847 992.77 396.848H1058.32C1058.63 396.847 1058.92 396.718 1059.14 396.488C1059.35 396.258 1059.48 395.946 1059.48 395.62V349.026C1059.48 348.7 1059.36 348.388 1059.14 348.157C1058.92 347.927 1058.63 347.797 1058.32 347.796H992.77C992.463 347.797 992.169 347.927 991.952 348.157C991.736 348.388 991.614 348.7 991.614 349.026Z" fill="#6C63FF"/>
<path d="M988.656 405.528C988.778 405.691 988.933 405.822 989.11 405.911C989.286 406.001 989.48 406.047 989.676 406.046H1061.06C1061.25 406.046 1061.45 406 1061.62 405.91C1061.8 405.821 1061.95 405.691 1062.08 405.53C1062.2 405.369 1062.29 405.181 1062.33 404.979C1062.38 404.778 1062.38 404.568 1062.34 404.365L1061.23 398.775C1061.19 398.547 1061.09 398.335 1060.95 398.158C1060.8 397.981 1060.62 397.845 1060.42 397.762C1060.27 397.7 1060.11 397.668 1059.95 397.668H990.779C990.62 397.668 990.462 397.7 990.313 397.762C990.108 397.845 989.926 397.981 989.783 398.158C989.64 398.335 989.541 398.547 989.496 398.775L988.387 404.365C988.348 404.568 988.352 404.777 988.398 404.979C988.444 405.18 988.532 405.367 988.656 405.528Z" fill="#2F2E41"/>
<path d="M1057.5 400.076H1059.19C1059.33 400.076 1059.44 399.954 1059.44 399.804V398.947C1059.44 398.797 1059.33 398.675 1059.19 398.675H1057.5C1057.36 398.675 1057.24 398.797 1057.24 398.947V399.804C1057.24 399.954 1057.36 400.076 1057.5 400.076Z" fill="#3F3D56"/>
<path d="M1053.1 400.076H1054.79C1054.93 400.076 1055.05 399.954 1055.05 399.804V398.947C1055.05 398.797 1054.93 398.675 1054.79 398.675H1053.1C1052.96 398.675 1052.85 398.797 1052.85 398.947V399.804C1052.85 399.954 1052.96 400.076 1053.1 400.076Z" fill="#3F3D56"/>
<path d="M1048.71 400.076H1050.39C1050.53 400.076 1050.65 399.954 1050.65 399.804V398.947C1050.65 398.797 1050.53 398.675 1050.39 398.675H1048.71C1048.56 398.675 1048.45 398.797 1048.45 398.947V399.804C1048.45 399.954 1048.56 400.076 1048.71 400.076Z" fill="#3F3D56"/>
<path d="M1044.31 400.076H1046C1046.14 400.076 1046.25 399.954 1046.25 399.804V398.947C1046.25 398.797 1046.14 398.675 1046 398.675H1044.31C1044.17 398.675 1044.05 398.797 1044.05 398.947V399.804C1044.05 399.954 1044.17 400.076 1044.31 400.076Z" fill="#3F3D56"/>
<path d="M1039.91 400.076H1041.6C1041.74 400.076 1041.85 399.954 1041.85 399.804V398.947C1041.85 398.797 1041.74 398.675 1041.6 398.675H1039.91C1039.77 398.675 1039.66 398.797 1039.66 398.947V399.804C1039.66 399.954 1039.77 400.076 1039.91 400.076Z" fill="#3F3D56"/>
<path d="M1035.52 400.076H1037.2C1037.34 400.076 1037.46 399.954 1037.46 399.804V398.947C1037.46 398.797 1037.34 398.675 1037.2 398.675H1035.52C1035.37 398.675 1035.26 398.797 1035.26 398.947V399.804C1035.26 399.954 1035.37 400.076 1035.52 400.076Z" fill="#3F3D56"/>
<path d="M1031.12 400.076H1032.8C1032.95 400.076 1033.06 399.954 1033.06 399.804V398.947C1033.06 398.797 1032.95 398.675 1032.8 398.675H1031.12C1030.98 398.675 1030.86 398.797 1030.86 398.947V399.804C1030.86 399.954 1030.98 400.076 1031.12 400.076Z" fill="#3F3D56"/>
<path d="M1026.72 400.076H1028.41C1028.55 400.076 1028.66 399.954 1028.66 399.804V398.947C1028.66 398.797 1028.55 398.675 1028.41 398.675H1026.72C1026.58 398.675 1026.46 398.797 1026.46 398.947V399.804C1026.46 399.954 1026.58 400.076 1026.72 400.076Z" fill="#3F3D56"/>
<path d="M1022.32 400.076H1024.01C1024.15 400.076 1024.27 399.954 1024.27 399.804V398.947C1024.27 398.797 1024.15 398.675 1024.01 398.675H1022.32C1022.18 398.675 1022.07 398.797 1022.07 398.947V399.804C1022.07 399.954 1022.18 400.076 1022.32 400.076Z" fill="#3F3D56"/>
<path d="M1017.93 400.076H1019.61C1019.75 400.076 1019.87 399.954 1019.87 399.804V398.947C1019.87 398.797 1019.75 398.675 1019.61 398.675H1017.93C1017.79 398.675 1017.67 398.797 1017.67 398.947V399.804C1017.67 399.954 1017.79 400.076 1017.93 400.076Z" fill="#3F3D56"/>
<path d="M1013.53 400.076H1015.22C1015.36 400.076 1015.47 399.954 1015.47 399.804V398.947C1015.47 398.797 1015.36 398.675 1015.22 398.675H1013.53C1013.39 398.675 1013.27 398.797 1013.27 398.947V399.804C1013.27 399.954 1013.39 400.076 1013.53 400.076Z" fill="#3F3D56"/>
<path d="M1009.13 400.076H1010.82C1010.96 400.076 1011.08 399.954 1011.08 399.804V398.947C1011.08 398.797 1010.96 398.675 1010.82 398.675H1009.13C1008.99 398.675 1008.88 398.797 1008.88 398.947V399.804C1008.88 399.954 1008.99 400.076 1009.13 400.076Z" fill="#3F3D56"/>
<path d="M1004.74 400.076H1006.42C1006.56 400.076 1006.68 399.954 1006.68 399.804V398.947C1006.68 398.797 1006.56 398.675 1006.42 398.675H1004.74C1004.59 398.675 1004.48 398.797 1004.48 398.947V399.804C1004.48 399.954 1004.59 400.076 1004.74 400.076Z" fill="#3F3D56"/>
<path d="M1000.34 400.076H1002.02C1002.17 400.076 1002.28 399.954 1002.28 399.804V398.947C1002.28 398.797 1002.17 398.675 1002.02 398.675H1000.34C1000.2 398.675 1000.08 398.797 1000.08 398.947V399.804C1000.08 399.954 1000.2 400.076 1000.34 400.076Z" fill="#3F3D56"/>
<path d="M995.942 400.076H997.628C997.769 400.076 997.884 399.954 997.884 399.804V398.947C997.884 398.797 997.769 398.675 997.628 398.675H995.942C995.8 398.675 995.686 398.797 995.686 398.947V399.804C995.686 399.954 995.8 400.076 995.942 400.076Z" fill="#3F3D56"/>
<path d="M991.545 400.076H993.231C993.372 400.076 993.487 399.954 993.487 399.804V398.947C993.487 398.797 993.372 398.675 993.231 398.675H991.545C991.403 398.675 991.288 398.797 991.288 398.947V399.804C991.288 399.954 991.403 400.076 991.545 400.076Z" fill="#3F3D56"/>
<path d="M1057.55 402.411H1059.24C1059.38 402.411 1059.49 402.289 1059.49 402.139V401.282C1059.49 401.132 1059.38 401.01 1059.24 401.01H1057.55C1057.41 401.01 1057.3 401.132 1057.3 401.282V402.139C1057.3 402.289 1057.41 402.411 1057.55 402.411Z" fill="#3F3D56"/>
<path d="M1053.16 402.411H1054.84C1054.98 402.411 1055.1 402.289 1055.1 402.139V401.282C1055.1 401.132 1054.98 401.01 1054.84 401.01H1053.16C1053.01 401.01 1052.9 401.132 1052.9 401.282V402.139C1052.9 402.289 1053.01 402.411 1053.16 402.411Z" fill="#3F3D56"/>
<path d="M1048.76 402.411H1050.44C1050.59 402.411 1050.7 402.289 1050.7 402.139V401.282C1050.7 401.132 1050.59 401.01 1050.44 401.01H1048.76C1048.62 401.01 1048.5 401.132 1048.5 401.282V402.139C1048.5 402.289 1048.62 402.411 1048.76 402.411Z" fill="#3F3D56"/>
<path d="M1044.36 402.411H1046.05C1046.19 402.411 1046.3 402.289 1046.3 402.139V401.282C1046.3 401.132 1046.19 401.01 1046.05 401.01H1044.36C1044.22 401.01 1044.1 401.132 1044.1 401.282V402.139C1044.1 402.289 1044.22 402.411 1044.36 402.411Z" fill="#3F3D56"/>
<path d="M1039.96 402.411H1041.65C1041.79 402.411 1041.91 402.289 1041.91 402.139V401.282C1041.91 401.132 1041.79 401.01 1041.65 401.01H1039.96C1039.82 401.01 1039.71 401.132 1039.71 401.282V402.139C1039.71 402.289 1039.82 402.411 1039.96 402.411Z" fill="#3F3D56"/>
<path d="M1035.57 402.411H1037.25C1037.39 402.411 1037.51 402.289 1037.51 402.139V401.282C1037.51 401.132 1037.39 401.01 1037.25 401.01H1035.57C1035.43 401.01 1035.31 401.132 1035.31 401.282V402.139C1035.31 402.289 1035.43 402.411 1035.57 402.411Z" fill="#3F3D56"/>
<path d="M1031.17 402.411H1032.86C1033 402.411 1033.11 402.289 1033.11 402.139V401.282C1033.11 401.132 1033 401.01 1032.86 401.01H1031.17C1031.03 401.01 1030.91 401.132 1030.91 401.282V402.139C1030.91 402.289 1031.03 402.411 1031.17 402.411Z" fill="#3F3D56"/>
<path d="M1026.77 402.411H1028.46C1028.6 402.411 1028.72 402.289 1028.72 402.139V401.282C1028.72 401.132 1028.6 401.01 1028.46 401.01H1026.77C1026.63 401.01 1026.52 401.132 1026.52 401.282V402.139C1026.52 402.289 1026.63 402.411 1026.77 402.411Z" fill="#3F3D56"/>
<path d="M1022.38 402.411H1024.06C1024.2 402.411 1024.32 402.289 1024.32 402.139V401.282C1024.32 401.132 1024.2 401.01 1024.06 401.01H1022.38C1022.23 401.01 1022.12 401.132 1022.12 401.282V402.139C1022.12 402.289 1022.23 402.411 1022.38 402.411Z" fill="#3F3D56"/>
<path d="M1017.98 402.411H1019.66C1019.81 402.411 1019.92 402.289 1019.92 402.139V401.282C1019.92 401.132 1019.81 401.01 1019.66 401.01H1017.98C1017.84 401.01 1017.72 401.132 1017.72 401.282V402.139C1017.72 402.289 1017.84 402.411 1017.98 402.411Z" fill="#3F3D56"/>
<path d="M1013.58 402.411H1015.27C1015.41 402.411 1015.52 402.289 1015.52 402.139V401.282C1015.52 401.132 1015.41 401.01 1015.27 401.01H1013.58C1013.44 401.01 1013.33 401.132 1013.33 401.282V402.139C1013.33 402.289 1013.44 402.411 1013.58 402.411Z" fill="#3F3D56"/>
<path d="M1009.18 402.411H1010.87C1011.01 402.411 1011.13 402.289 1011.13 402.139V401.282C1011.13 401.132 1011.01 401.01 1010.87 401.01H1009.18C1009.04 401.01 1008.93 401.132 1008.93 401.282V402.139C1008.93 402.289 1009.04 402.411 1009.18 402.411Z" fill="#3F3D56"/>
<path d="M1004.79 402.411H1006.47C1006.62 402.411 1006.73 402.289 1006.73 402.139V401.282C1006.73 401.132 1006.62 401.01 1006.47 401.01H1004.79C1004.65 401.01 1004.53 401.132 1004.53 401.282V402.139C1004.53 402.289 1004.65 402.411 1004.79 402.411Z" fill="#3F3D56"/>
<path d="M1000.39 402.411H1002.08C1002.22 402.411 1002.33 402.289 1002.33 402.139V401.282C1002.33 401.132 1002.22 401.01 1002.08 401.01H1000.39C1000.25 401.01 1000.13 401.132 1000.13 401.282V402.139C1000.13 402.289 1000.25 402.411 1000.39 402.411Z" fill="#3F3D56"/>
<path d="M995.994 402.411H997.68C997.821 402.411 997.936 402.289 997.936 402.139V401.282C997.936 401.132 997.821 401.01 997.68 401.01H995.994C995.852 401.01 995.737 401.132 995.737 401.282V402.139C995.737 402.289 995.852 402.411 995.994 402.411Z" fill="#3F3D56"/>
<path d="M991.597 402.411H993.283C993.424 402.411 993.539 402.289 993.539 402.139V401.282C993.539 401.132 993.424 401.01 993.283 401.01H991.597C991.455 401.01 991.34 401.132 991.34 401.282V402.139C991.34 402.289 991.455 402.411 991.597 402.411Z" fill="#3F3D56"/>
<path d="M1021.06 405.213H1038.13C1038.27 405.213 1038.39 405.091 1038.39 404.941V404.084C1038.39 403.934 1038.27 403.812 1038.13 403.812H1021.06C1020.92 403.812 1020.8 403.934 1020.8 404.084V404.941C1020.8 405.091 1020.92 405.213 1021.06 405.213Z" fill="#3F3D56"/>
<path d="M1002.97 357.99H1001.47C1001.02 357.99 1000.65 358.38 1000.65 358.86C1000.65 359.341 1001.02 359.73 1001.47 359.73H1002.97C1003.42 359.73 1003.79 359.341 1003.79 358.86C1003.79 358.38 1003.42 357.99 1002.97 357.99Z" fill="white"/>
<path d="M1020.04 357.99H1018.54C1018.09 357.99 1017.72 358.38 1017.72 358.86C1017.72 359.341 1018.09 359.73 1018.54 359.73H1020.04C1020.49 359.73 1020.86 359.341 1020.86 358.86C1020.86 358.38 1020.49 357.99 1020.04 357.99Z" fill="white"/>
<path d="M1024.87 357.99H1023.38C1022.93 357.99 1022.56 358.38 1022.56 358.86C1022.56 359.341 1022.93 359.73 1023.38 359.73H1024.87C1025.33 359.73 1025.69 359.341 1025.69 358.86C1025.69 358.38 1025.33 357.99 1024.87 357.99Z" fill="white"/>
<path d="M1015.39 357.845H1006.12C1005.66 357.845 1005.3 358.234 1005.3 358.715C1005.3 359.196 1005.66 359.585 1006.12 359.585H1015.39C1015.85 359.585 1016.21 359.196 1016.21 358.715C1016.21 358.234 1015.85 357.845 1015.39 357.845Z" fill="white"/>
<path d="M1038.16 357.845H1028.88C1028.43 357.845 1028.06 358.234 1028.06 358.715C1028.06 359.196 1028.43 359.585 1028.88 359.585H1038.16C1038.61 359.585 1038.97 359.196 1038.97 358.715C1038.97 358.234 1038.61 357.845 1038.16 357.845Z" fill="white"/>
<path d="M1007.52 361.918H1006.03C1005.57 361.918 1005.21 362.308 1005.21 362.788C1005.21 363.269 1005.57 363.659 1006.03 363.659H1007.52C1007.97 363.659 1008.34 363.269 1008.34 362.788C1008.34 362.308 1007.97 361.918 1007.52 361.918Z" fill="white"/>
<path d="M1024.59 361.918H1023.1C1022.64 361.918 1022.28 362.308 1022.28 362.788C1022.28 363.269 1022.64 363.659 1023.1 363.659H1024.59C1025.04 363.659 1025.41 363.269 1025.41 362.788C1025.41 362.308 1025.04 361.918 1024.59 361.918Z" fill="white"/>
<path d="M1029.43 361.918H1027.93C1027.48 361.918 1027.11 362.308 1027.11 362.788C1027.11 363.269 1027.48 363.659 1027.93 363.659H1029.43C1029.88 363.659 1030.25 363.269 1030.25 362.788C1030.25 362.308 1029.88 361.918 1029.43 361.918Z" fill="white"/>
<path d="M1019.95 361.773H1010.67C1010.22 361.773 1009.85 362.163 1009.85 362.643C1009.85 363.124 1010.22 363.514 1010.67 363.514H1019.95C1020.4 363.514 1020.77 363.124 1020.77 362.643C1020.77 362.163 1020.4 361.773 1019.95 361.773Z" fill="white"/>
<path d="M1042.71 361.773H1033.43C1032.98 361.773 1032.61 362.163 1032.61 362.643C1032.61 363.124 1032.98 363.514 1033.43 363.514H1042.71C1043.16 363.514 1043.53 363.124 1043.53 362.643C1043.53 362.163 1043.16 361.773 1042.71 361.773Z" fill="white"/>
<path d="M1012.07 365.847H1010.58C1010.13 365.847 1009.76 366.236 1009.76 366.717C1009.76 367.197 1010.13 367.587 1010.58 367.587H1012.07C1012.52 367.587 1012.89 367.197 1012.89 366.717C1012.89 366.236 1012.52 365.847 1012.07 365.847Z" fill="white"/>
<path d="M1029.14 365.847H1027.65C1027.2 365.847 1026.83 366.236 1026.83 366.717C1026.83 367.197 1027.2 367.587 1027.65 367.587H1029.14C1029.59 367.587 1029.96 367.197 1029.96 366.717C1029.96 366.236 1029.59 365.847 1029.14 365.847Z" fill="white"/>
<path d="M1033.98 365.847H1032.49C1032.03 365.847 1031.67 366.236 1031.67 366.717C1031.67 367.197 1032.03 367.587 1032.49 367.587H1033.98C1034.43 367.587 1034.8 367.197 1034.8 366.717C1034.8 366.236 1034.43 365.847 1033.98 365.847Z" fill="white"/>
<path d="M1024.5 365.702H1015.22C1014.77 365.702 1014.4 366.091 1014.4 366.572C1014.4 367.052 1014.77 367.442 1015.22 367.442H1024.5C1024.95 367.442 1025.32 367.052 1025.32 366.572C1025.32 366.091 1024.95 365.702 1024.5 365.702Z" fill="white"/>
<path d="M1047.26 365.702H1037.98C1037.53 365.702 1037.16 366.091 1037.16 366.572C1037.16 367.052 1037.53 367.442 1037.98 367.442H1047.26C1047.71 367.442 1048.08 367.052 1048.08 366.572C1048.08 366.091 1047.71 365.702 1047.26 365.702Z" fill="white"/>
<path d="M1016.62 369.775H1015.13C1014.68 369.775 1014.31 370.165 1014.31 370.645C1014.31 371.126 1014.68 371.516 1015.13 371.516H1016.62C1017.08 371.516 1017.44 371.126 1017.44 370.645C1017.44 370.165 1017.08 369.775 1016.62 369.775Z" fill="white"/>
<path d="M1033.69 369.775H1032.2C1031.75 369.775 1031.38 370.165 1031.38 370.645C1031.38 371.126 1031.75 371.516 1032.2 371.516H1033.69C1034.15 371.516 1034.51 371.126 1034.51 370.645C1034.51 370.165 1034.15 369.775 1033.69 369.775Z" fill="white"/>
<path d="M1038.53 369.775H1037.04C1036.59 369.775 1036.22 370.165 1036.22 370.645C1036.22 371.126 1036.59 371.516 1037.04 371.516H1038.53C1038.98 371.516 1039.35 371.126 1039.35 370.645C1039.35 370.165 1038.98 369.775 1038.53 369.775Z" fill="white"/>
<path d="M1029.05 369.63H1019.77C1019.32 369.63 1018.95 370.019 1018.95 370.5C1018.95 370.981 1019.32 371.37 1019.77 371.37H1029.05C1029.5 371.37 1029.87 370.981 1029.87 370.5C1029.87 370.019 1029.5 369.63 1029.05 369.63Z" fill="white"/>
<path d="M1020.04 385.396H1018.54C1018.09 385.396 1017.72 385.786 1017.72 386.266C1017.72 386.747 1018.09 387.136 1018.54 387.136H1020.04C1020.49 387.136 1020.86 386.747 1020.86 386.266C1020.86 385.786 1020.49 385.396 1020.04 385.396Z" fill="white"/>
<path d="M1024.87 385.396H1023.38C1022.93 385.396 1022.56 385.786 1022.56 386.266C1022.56 386.747 1022.93 387.136 1023.38 387.136H1024.87C1025.33 387.136 1025.69 386.747 1025.69 386.266C1025.69 385.786 1025.33 385.396 1024.87 385.396Z" fill="white"/>
<path d="M1038.16 385.541H1028.88C1028.43 385.541 1028.06 385.931 1028.06 386.411C1028.06 386.892 1028.43 387.282 1028.88 387.282H1038.16C1038.61 387.282 1038.97 386.892 1038.97 386.411C1038.97 385.931 1038.61 385.541 1038.16 385.541Z" fill="white"/>
<path d="M1002.97 385.396H1001.47C1001.02 385.396 1000.65 385.786 1000.65 386.266C1000.65 386.747 1001.02 387.136 1001.47 387.136H1002.97C1003.42 387.136 1003.79 386.747 1003.79 386.266C1003.79 385.786 1003.42 385.396 1002.97 385.396Z" fill="white"/>
<path d="M1015.39 385.541H1006.12C1005.66 385.541 1005.3 385.931 1005.3 386.411C1005.3 386.892 1005.66 387.282 1006.12 387.282H1015.39C1015.85 387.282 1016.21 386.892 1016.21 386.411C1016.21 385.931 1015.85 385.541 1015.39 385.541Z" fill="white"/>
<path d="M1007.52 381.467H1006.03C1005.57 381.467 1005.21 381.857 1005.21 382.338C1005.21 382.818 1005.57 383.208 1006.03 383.208H1007.52C1007.97 383.208 1008.34 382.818 1008.34 382.338C1008.34 381.857 1007.97 381.467 1007.52 381.467Z" fill="white"/>
<path d="M1024.59 381.467H1023.1C1022.64 381.467 1022.28 381.857 1022.28 382.338C1022.28 382.818 1022.64 383.208 1023.1 383.208H1024.59C1025.04 383.208 1025.41 382.818 1025.41 382.338C1025.41 381.857 1025.04 381.467 1024.59 381.467Z" fill="white"/>
<path d="M1029.43 381.467H1027.93C1027.48 381.467 1027.11 381.857 1027.11 382.338C1027.11 382.818 1027.48 383.208 1027.93 383.208H1029.43C1029.88 383.208 1030.25 382.818 1030.25 382.338C1030.25 381.857 1029.88 381.467 1029.43 381.467Z" fill="white"/>
<path d="M1019.95 381.613H1010.67C1010.22 381.613 1009.85 382.002 1009.85 382.483C1009.85 382.964 1010.22 383.353 1010.67 383.353H1019.95C1020.4 383.353 1020.77 382.964 1020.77 382.483C1020.77 382.002 1020.4 381.613 1019.95 381.613Z" fill="white"/>
<path d="M1012.07 377.539H1010.58C1010.13 377.539 1009.76 377.929 1009.76 378.409C1009.76 378.89 1010.13 379.28 1010.58 379.28H1012.07C1012.52 379.28 1012.89 378.89 1012.89 378.409C1012.89 377.929 1012.52 377.539 1012.07 377.539Z" fill="white"/>
<path d="M1029.14 377.539H1027.65C1027.2 377.539 1026.83 377.929 1026.83 378.409C1026.83 378.89 1027.2 379.28 1027.65 379.28H1029.14C1029.59 379.28 1029.96 378.89 1029.96 378.409C1029.96 377.929 1029.59 377.539 1029.14 377.539Z" fill="white"/>
<path d="M1033.98 377.539H1032.49C1032.03 377.539 1031.67 377.929 1031.67 378.409C1031.67 378.89 1032.03 379.28 1032.49 379.28H1033.98C1034.43 379.28 1034.8 378.89 1034.8 378.409C1034.8 377.929 1034.43 377.539 1033.98 377.539Z" fill="white"/>
<path d="M1024.5 377.684H1015.22C1014.77 377.684 1014.4 378.074 1014.4 378.554C1014.4 379.035 1014.77 379.425 1015.22 379.425H1024.5C1024.95 379.425 1025.32 379.035 1025.32 378.554C1025.32 378.074 1024.95 377.684 1024.5 377.684Z" fill="white"/>
<path d="M1016.62 373.611H1015.13C1014.68 373.611 1014.31 374 1014.31 374.481C1014.31 374.962 1014.68 375.351 1015.13 375.351H1016.62C1017.08 375.351 1017.44 374.962 1017.44 374.481C1017.44 374 1017.08 373.611 1016.62 373.611Z" fill="white"/>
<path d="M1033.69 373.611H1032.2C1031.75 373.611 1031.38 374 1031.38 374.481C1031.38 374.962 1031.75 375.351 1032.2 375.351H1033.69C1034.15 375.351 1034.51 374.962 1034.51 374.481C1034.51 374 1034.15 373.611 1033.69 373.611Z" fill="white"/>
<path d="M1038.53 373.611H1037.04C1036.59 373.611 1036.22 374 1036.22 374.481C1036.22 374.962 1036.59 375.351 1037.04 375.351H1038.53C1038.98 375.351 1039.35 374.962 1039.35 374.481C1039.35 374 1038.98 373.611 1038.53 373.611Z" fill="white"/>
<path d="M1029.05 373.756H1019.77C1019.32 373.756 1018.95 374.146 1018.95 374.626C1018.95 375.107 1019.32 375.496 1019.77 375.496H1029.05C1029.5 375.496 1029.87 375.107 1029.87 374.626C1029.87 374.146 1029.5 373.756 1029.05 373.756Z" fill="white"/>
<path d="M995.03 431.435L988.023 419.671L1010.02 401.05L1019.1 390.368C1020.27 388.98 1021.78 387.945 1023.45 387.367C1025.12 386.789 1026.91 386.687 1028.63 387.073C1030.36 387.458 1031.95 388.317 1033.27 389.563C1034.58 390.809 1035.56 392.399 1036.11 394.174C1036.93 396.805 1036.75 399.67 1035.62 402.166C1034.49 404.661 1032.49 406.591 1030.04 407.549L1015.68 413.166L995.03 431.435Z" fill="#FFB6B6"/>
<path d="M830.618 346.14V403.315H868.332V346.14C868.332 345.729 868.209 345.328 867.979 344.997C867.75 344.666 867.426 344.421 867.056 344.3C866.882 344.239 866.699 344.209 866.515 344.211H832.439C832.2 344.21 831.964 344.26 831.743 344.357C831.522 344.453 831.321 344.595 831.152 344.774C830.983 344.954 830.849 345.166 830.757 345.401C830.665 345.635 830.618 345.886 830.618 346.14ZM845.336 365.785C845.346 364.658 845.774 363.581 846.528 362.787C847.282 361.994 848.3 361.549 849.362 361.549C850.423 361.549 851.442 361.994 852.195 362.787C852.949 363.581 853.378 364.658 853.388 365.785V372.419C853.382 373.55 852.956 374.632 852.201 375.429C851.447 376.226 850.426 376.674 849.362 376.674C848.298 376.674 847.277 376.226 846.522 375.429C845.768 374.632 845.341 373.55 845.336 372.419V365.785Z" fill="#2F2E41"/>
<path d="M830.502 401.487V407C830.503 407.286 830.61 407.56 830.8 407.762C830.989 407.964 831.246 408.079 831.515 408.082H867.434C867.703 408.08 867.961 407.966 868.151 407.763C868.341 407.56 868.447 407.286 868.447 407V401.487H830.502Z" fill="#3F3D56"/>
<path d="M771.288 259.998V364.392C771.289 365.722 771.787 366.998 772.673 367.938C773.559 368.879 774.76 369.408 776.012 369.409H921.672C922.924 369.408 924.125 368.879 925.011 367.938C925.897 366.998 926.395 365.722 926.396 364.392V259.998C926.393 258.668 925.894 257.395 925.008 256.455C924.123 255.516 922.923 254.988 921.672 254.986H776.012C774.761 254.988 773.561 255.516 772.676 256.455C771.79 257.395 771.291 258.668 771.288 259.998Z" fill="#3F3D56"/>
<path d="M774.706 261.296V363.104C774.707 363.815 774.973 364.496 775.446 364.999C775.92 365.501 776.561 365.784 777.23 365.785H920.459C921.128 365.784 921.77 365.501 922.243 364.999C922.716 364.496 922.983 363.815 922.984 363.104V261.296C922.984 260.585 922.718 259.902 922.245 259.398C921.771 258.895 921.129 258.611 920.459 258.609H777.23C776.56 258.611 775.918 258.895 775.445 259.398C774.971 259.902 774.706 260.585 774.706 261.296Z" fill="white"/>
<path d="M801.286 407.708C801.432 407.902 801.617 408.059 801.828 408.166C802.039 408.273 802.27 408.328 802.504 408.327H887.716C887.949 408.327 888.179 408.271 888.389 408.165C888.6 408.058 888.785 407.903 888.932 407.711C889.079 407.518 889.183 407.294 889.238 407.053C889.293 406.813 889.296 406.562 889.249 406.32L887.926 399.647C887.871 399.375 887.753 399.122 887.582 398.91C887.412 398.699 887.194 398.536 886.95 398.437C886.772 398.363 886.584 398.326 886.393 398.326H803.822C803.631 398.326 803.442 398.363 803.265 398.437C803.02 398.536 802.803 398.699 802.632 398.91C802.462 399.122 802.344 399.375 802.289 399.647L800.966 406.32C800.919 406.562 800.923 406.812 800.979 407.052C801.034 407.293 801.139 407.517 801.286 407.708Z" fill="#2F2E41"/>
<path d="M915.811 272.634H781.792C781.653 272.631 781.52 272.57 781.423 272.464C781.326 272.358 781.271 272.216 781.271 272.068C781.271 271.92 781.326 271.778 781.423 271.672C781.52 271.566 781.653 271.505 781.792 271.502H915.811C915.95 271.505 916.083 271.566 916.18 271.672C916.278 271.778 916.332 271.92 916.332 272.068C916.332 272.216 916.278 272.358 916.18 272.464C916.083 272.57 915.95 272.631 915.811 272.634Z" fill="#3F3D56"/>
<path d="M790.915 268.612C792.64 268.612 794.039 267.093 794.039 265.221C794.039 263.348 792.64 261.829 790.915 261.829C789.19 261.829 787.792 263.348 787.792 265.221C787.792 267.093 789.19 268.612 790.915 268.612Z" fill="#3F3D56"/>
<path d="M801.705 268.612C803.43 268.612 804.828 267.093 804.828 265.221C804.828 263.348 803.43 261.829 801.705 261.829C799.98 261.829 798.582 263.348 798.582 265.221C798.582 267.093 799.98 268.612 801.705 268.612Z" fill="#3F3D56"/>
<path d="M812.495 268.612C814.22 268.612 815.618 267.093 815.618 265.221C815.618 263.348 814.22 261.829 812.495 261.829C810.77 261.829 809.371 263.348 809.371 265.221C809.371 267.093 810.77 268.612 812.495 268.612Z" fill="#3F3D56"/>
<path d="M909.314 262.668H901.65C901.499 262.672 901.355 262.738 901.249 262.853C901.143 262.968 901.084 263.123 901.084 263.284C901.084 263.445 901.143 263.599 901.249 263.715C901.355 263.83 901.499 263.896 901.65 263.9H909.314C909.466 263.898 909.612 263.832 909.719 263.717C909.826 263.601 909.886 263.446 909.886 263.284C909.886 263.122 909.826 262.967 909.719 262.851C909.612 262.736 909.466 262.67 909.314 262.668Z" fill="#3F3D56"/>
<path d="M909.314 264.982H901.65C901.499 264.985 901.354 265.052 901.248 265.167C901.142 265.282 901.083 265.437 901.083 265.598C901.083 265.759 901.142 265.913 901.248 266.028C901.354 266.144 901.499 266.21 901.65 266.214H909.314C909.466 266.212 909.612 266.146 909.719 266.031C909.827 265.915 909.887 265.76 909.887 265.598C909.887 265.435 909.827 265.28 909.719 265.165C909.612 265.049 909.466 264.984 909.314 264.982Z" fill="#3F3D56"/>
<path d="M909.314 267.295H901.65C901.499 267.299 901.355 267.365 901.249 267.48C901.143 267.596 901.084 267.75 901.084 267.911C901.084 268.072 901.143 268.227 901.249 268.342C901.355 268.457 901.499 268.523 901.65 268.527H909.314C909.466 268.525 909.612 268.459 909.719 268.344C909.826 268.228 909.886 268.073 909.886 267.911C909.886 267.749 909.826 267.594 909.719 267.479C909.612 267.363 909.466 267.297 909.314 267.295Z" fill="#3F3D56"/>
<path d="M1094.07 403.906C1094.3 404.622 1094.74 405.24 1095.32 405.674C1095.9 406.108 1096.6 406.334 1097.31 406.321L1111.22 405.941C1111.93 405.926 1112.63 405.665 1113.19 405.197C1113.76 404.729 1114.17 404.079 1114.36 403.345L1116.32 380.997C1117.02 381.333 1117.78 381.498 1118.55 381.482C1119.22 381.464 1119.87 381.308 1120.48 381.021C1121.09 380.734 1121.64 380.322 1122.1 379.81C1122.56 379.297 1122.92 378.694 1123.15 378.033C1123.39 377.373 1123.51 376.67 1123.49 375.963C1123.48 375.256 1123.33 374.559 1123.06 373.912C1122.79 373.266 1122.4 372.682 1121.92 372.195C1121.43 371.708 1120.87 371.326 1120.24 371.072C1119.62 370.817 1118.96 370.696 1118.29 370.714C1117.99 370.712 1117.68 370.746 1117.38 370.814C1117.06 370.44 1116.66 370.142 1116.22 369.94C1115.78 369.738 1115.31 369.637 1114.83 369.642L1093.44 370.228C1093.26 370.235 1093.08 370.259 1092.91 370.298C1092.44 370.391 1091.99 370.589 1091.6 370.88C1091.21 371.171 1090.88 371.547 1090.64 371.984C1090.4 372.42 1090.25 372.907 1090.2 373.411C1090.15 373.915 1090.2 374.424 1090.35 374.905L1094.07 403.906ZM1116.73 379.479L1118.13 374.154C1118.29 373.539 1118.29 372.89 1118.14 372.273C1118.21 372.272 1118.27 372.238 1118.34 372.238C1119.3 372.217 1120.22 372.601 1120.92 373.306C1121.61 374.011 1122.01 374.98 1122.04 375.999C1122.06 377.019 1121.7 378.007 1121.04 378.745C1120.38 379.484 1119.47 379.914 1118.51 379.941C1117.88 379.961 1117.27 379.802 1116.73 379.479Z" fill="#2F2E41"/>
<path d="M1092.91 370.298C1093.36 373.065 1098.49 375.011 1104.65 374.673C1110.31 374.395 1114.94 372.283 1115.79 369.779C1115.48 369.68 1115.15 369.634 1114.83 369.642L1093.44 370.228C1093.26 370.235 1093.08 370.259 1092.91 370.298Z" fill="#3F3D56"/>
<path d="M1105.78 391.626C1105.8 391.618 1105.83 391.606 1105.86 391.589L1108.88 389.49C1108.91 389.464 1108.94 389.43 1108.96 389.389C1108.98 389.349 1108.99 389.303 1108.99 389.257C1108.99 389.21 1108.98 389.165 1108.96 389.124C1108.94 389.083 1108.91 389.049 1108.88 389.024L1105.74 386.84C1105.71 386.82 1105.68 386.806 1105.64 386.799C1105.61 386.792 1105.57 386.792 1105.54 386.8C1105.51 386.807 1105.47 386.821 1105.44 386.842C1105.42 386.863 1105.39 386.889 1105.37 386.92C1105.35 386.95 1105.34 386.985 1105.33 387.021C1105.33 387.057 1105.33 387.094 1105.34 387.13C1105.34 387.166 1105.36 387.2 1105.38 387.23C1105.4 387.26 1105.42 387.286 1105.45 387.306L1108.25 389.256L1105.57 391.123C1105.52 391.159 1105.48 391.213 1105.46 391.276C1105.44 391.34 1105.45 391.408 1105.47 391.468C1105.5 391.528 1105.54 391.577 1105.6 391.606C1105.65 391.635 1105.72 391.642 1105.78 391.626Z" fill="#6C63FF"/>
<path d="M1101.01 391.86C1101.06 391.846 1101.1 391.817 1101.14 391.775C1101.17 391.734 1101.2 391.682 1101.2 391.627C1101.21 391.572 1101.2 391.516 1101.18 391.467C1101.16 391.417 1101.12 391.375 1101.07 391.348L1098.29 389.653L1100.98 387.53C1101.01 387.509 1101.03 387.481 1101.05 387.45C1101.07 387.418 1101.08 387.384 1101.08 387.347C1101.09 387.311 1101.09 387.274 1101.08 387.239C1101.07 387.203 1101.05 387.17 1101.03 387.141C1101.01 387.111 1100.99 387.086 1100.96 387.068C1100.93 387.049 1100.9 387.037 1100.86 387.031C1100.83 387.026 1100.79 387.028 1100.76 387.037C1100.73 387.046 1100.69 387.061 1100.67 387.083L1097.66 389.46C1097.62 389.487 1097.59 389.523 1097.57 389.565C1097.56 389.607 1097.55 389.653 1097.55 389.7C1097.55 389.746 1097.57 389.791 1097.59 389.83C1097.61 389.869 1097.64 389.902 1097.68 389.925L1100.81 391.831C1100.87 391.867 1100.94 391.878 1101.01 391.86Z" fill="#6C63FF"/>
<path d="M1105.48 393.466C1105.5 393.459 1105.53 393.448 1105.55 393.434C1105.58 393.415 1105.6 393.389 1105.62 393.36C1105.64 393.33 1105.66 393.297 1105.67 393.261C1105.67 393.226 1105.68 393.189 1105.67 393.153C1105.67 393.116 1105.65 393.082 1105.64 393.05L1101.36 385.576C1101.32 385.512 1101.26 385.467 1101.19 385.45C1101.13 385.433 1101.05 385.444 1100.99 385.483C1100.94 385.521 1100.89 385.583 1100.88 385.655C1100.86 385.727 1100.87 385.803 1100.91 385.866L1105.19 393.341C1105.22 393.391 1105.26 393.431 1105.31 393.454C1105.36 393.476 1105.42 393.48 1105.48 393.466Z" fill="#6C63FF"/>
<path d="M864.815 303.407H841.619C840.673 303.407 839.906 304.221 839.906 305.226V307.633C839.906 308.638 840.673 309.453 841.619 309.453H864.815C865.761 309.453 866.528 308.638 866.528 307.633V305.226C866.528 304.221 865.761 303.407 864.815 303.407Z" fill="#6C63FF"/>
<path d="M878.335 315.499H828.098C827.152 315.499 826.385 316.314 826.385 317.319V319.726C826.385 320.731 827.152 321.546 828.098 321.546H878.335C879.281 321.546 880.048 320.731 880.048 319.726V317.319C880.048 316.314 879.281 315.499 878.335 315.499Z" fill="#E6E6E6"/>
<path d="M878.335 327.592H828.098C827.152 327.592 826.385 328.407 826.385 329.412V331.818C826.385 332.823 827.152 333.638 828.098 333.638H878.335C879.281 333.638 880.048 332.823 880.048 331.818V329.412C880.048 328.407 879.281 327.592 878.335 327.592Z" fill="#E6E6E6"/>
<path d="M882.594 368.085L882.708 368.467L882.714 368.479L886.139 379.539L890.079 392.283L897.492 416.234L897.563 419.954V419.967L898.114 449.895L896.587 453.952L898.306 460.604C898.306 460.604 897.515 450.549 893.276 456.323C890.875 459.605 888.067 462.963 885.761 466.111C889.121 467.555 892.534 468.86 896.001 470.028C896.749 470.283 897.504 470.524 898.258 470.766C898.42 470.817 898.581 470.868 898.743 470.919C910.236 474.528 922.117 476.557 934.095 476.954C934.718 476.973 935.329 476.986 935.922 476.998C936.131 477.005 936.335 477.011 936.538 477.011C937.209 477.018 937.874 477.024 938.544 477.024C939.898 477.024 941.245 477.003 942.586 476.96C952.514 476.663 962.383 475.245 972.028 472.731C971.963 468.502 971.783 463.561 971.525 458.282C971.406 455.694 968.717 452.889 968.555 450.18C968.442 448.145 970.855 446.231 970.729 444.164C969.915 431.438 968.897 436.323 968.142 427.312C968.064 426.428 967.993 425.582 967.927 424.774C967.442 418.987 967.106 415.369 967.106 415.369L970.328 393.803L975.388 359.945L974.998 359.264L974.561 359.035L947.873 345.006L946.424 341.063C946.002 339.927 945.27 338.951 944.321 338.261C943.372 337.571 942.251 337.198 941.101 337.19L923.521 337.114C922.608 337.11 921.708 337.336 920.895 337.775C920.082 338.215 919.379 338.853 918.844 339.639L914.084 346.641L882.594 368.085Z" fill="#3F3D56"/>
<path d="M901.545 410.904L897.563 419.954L894.845 426.135L890.168 452.14L887.827 454.779L885.821 445.436L864.826 450.387C864.138 446.323 864.642 450.524 864.217 446.066C864.337 445.939 864.462 445.812 864.588 445.685C864.923 445.354 865.205 445.042 865.199 444.744C864.959 429.366 865.678 403.196 871.678 387.342C872.617 384.753 873.856 382.299 875.366 380.035C875.486 379.863 875.6 379.691 875.714 379.52C878.48 375.405 880.228 371.354 882.707 368.473V368.467C882.723 368.454 882.737 368.439 882.749 368.422C882.758 368.417 882.766 368.411 882.773 368.403L899.803 358.813L900.533 380.614L901.054 396.284L901.545 410.904Z" fill="#3F3D56"/>
<path d="M962.95 413.475L967.924 424.778L969.66 428.714L974.335 454.716L976.669 457.349L978.68 448.008L979.624 447.802L996.662 444.054L1001.63 460.805C1002.75 458.824 1003.19 456.494 1002.88 454.208C1002.56 451.922 1001.52 449.82 999.916 448.258C999.577 447.932 999.294 447.615 999.302 447.315C999.585 429.228 998.543 396.203 989.136 382.61C986.149 378.296 984.356 374 981.748 370.998C981.74 370.99 981.74 370.981 981.732 370.981L975.385 359.944L974.998 359.267L974.562 359.035L962.95 413.475Z" fill="#3F3D56"/>
<path d="M932.819 331.8C945.736 331.8 956.207 320.679 956.207 306.96C956.207 293.241 945.736 282.119 932.819 282.119C919.902 282.119 909.43 293.241 909.43 306.96C909.43 320.679 919.902 331.8 932.819 331.8Z" fill="#FFB6B6"/>
<path d="M964.431 289.609C964.25 289.403 964.031 289.238 963.789 289.124C963.546 289.01 963.284 288.949 963.019 288.945L963.371 287.908C963.485 287.582 963.516 287.229 963.46 286.885C963.404 286.542 963.263 286.22 963.052 285.953C962.84 285.687 962.566 285.485 962.257 285.368C961.948 285.251 961.615 285.223 961.292 285.288L960.011 285.55L960.132 284.642C960.178 284.303 960.141 283.958 960.023 283.639C959.906 283.321 959.712 283.04 959.462 282.826C959.211 282.611 958.913 282.469 958.595 282.414C958.277 282.359 957.951 282.393 957.649 282.512C957.375 282.627 957.08 282.675 956.785 282.653C956.491 282.63 956.205 282.539 955.949 282.384C955.691 282.234 955.467 282.026 955.293 281.774C955.119 281.523 954.999 281.234 954.941 280.929L954.495 278.643L954.447 278.52C952.274 274.674 948.096 271.875 942.984 270.849C938.433 269.93 933.766 270.398 929.268 270.838C927.483 271.017 925.468 271.217 923.788 272.31C922.36 273.247 921.153 275.12 921.4 277.01C916.965 275.566 912.209 278.448 909.852 282.083C907.06 286.409 906.603 291.827 906.53 296.064C906.33 306.088 908.277 314.288 912.303 320.443C912.597 320.889 912.671 321.82 913.253 322.132L913.133 321.926C913.784 322.272 914.445 322.829 914.198 323.426C913.49 325.143 918.198 328.939 921.515 330.193C927.567 332.485 935.614 332.29 941.273 331.465L941.472 330.043C943.514 329.747 944.952 329.184 945.356 328.304C946.07 327.657 946.679 327.077 947.209 326.542L947.214 326.536C947.225 326.525 947.246 326.508 947.256 326.497C949.813 323.894 950.406 322.411 950.673 320.153C950.931 317.94 950.474 315.693 950.007 313.67C959.843 315.286 946.133 302.542 955.298 300.078C955.403 300.044 955.51 300.016 955.618 299.995C955.886 299.928 956.153 299.861 956.411 299.783C957.65 299.425 958.837 298.887 959.938 298.183C962.499 296.527 963.344 294.331 964.667 291.855C964.858 291.503 964.938 291.095 964.896 290.691C964.853 290.287 964.69 289.908 964.431 289.609Z" fill="#2F2E41"/>
<path d="M1015.54 415.243C1015.53 416.219 1015.52 417.585 1015.48 419.274C1015.48 419.508 1015.47 419.748 1015.47 419.993C1015.4 423.098 1015.33 425.701 1015.22 428.595C1015.21 428.796 1015.21 428.991 1015.2 429.191C1015.05 433.228 1014.82 437.927 1014.42 445.37C1013.68 459.117 1012.39 447.259 1011.09 452.082C1011.03 452.321 1010.96 452.606 1010.9 452.94C1010.7 454.154 1010.37 455.338 1009.91 456.469C1009.23 456.904 1008.52 457.322 1007.82 457.74C1005.83 458.916 1003.81 460.048 1001.77 461.124C1000.63 461.726 999.478 462.317 998.324 462.886C998.14 462.975 997.961 463.064 997.783 463.148C991.87 466.053 985.775 468.523 979.543 470.54C978.325 470.93 977.112 471.309 975.884 471.66C974.603 472.039 973.323 472.396 972.026 472.731C962.381 475.246 952.512 476.664 942.585 476.962C941.246 477.007 939.897 477.023 938.543 477.023C937.871 477.023 937.21 477.018 936.538 477.012C936.333 477.012 936.128 477.007 935.924 477.001C935.331 476.984 934.716 476.973 934.097 476.956C922.118 476.56 910.237 474.531 898.745 470.919L898.257 470.768C897.501 470.523 896.751 470.283 896 470.027C892.536 468.862 889.122 467.557 885.759 466.113C883.193 465.015 880.656 463.837 878.148 462.579C878.125 462.572 878.104 462.561 878.085 462.546C877.56 462.289 877.03 462.022 876.505 461.748C876.437 461.709 876.364 461.67 876.29 461.631C874.332 460.617 872.395 459.554 870.48 458.442C868.868 454.512 866.601 453.76 865.194 450.303C864.784 449.276 864.488 448.203 864.312 447.103C864.312 447.092 864.307 447.081 864.307 447.064C864.454 449.138 863.682 443.385 864.301 447.042C864.296 446.975 864.291 446.903 864.286 446.819C864.27 446.618 864.249 446.373 864.218 446.066C862.417 427.396 862.533 406.045 861.751 388.451C861.698 387.313 861.644 386.224 861.588 385.184C861.572 384.838 861.551 384.498 861.53 384.163C861.567 384.063 861.609 383.957 861.656 383.857C861.666 383.828 861.678 383.8 861.693 383.773C861.708 383.739 861.726 383.705 861.745 383.673C861.756 383.656 861.771 383.634 861.782 383.617C861.79 383.598 861.798 383.579 861.808 383.561C861.855 383.483 861.908 383.4 861.966 383.322C861.992 383.288 862.013 383.26 862.039 383.232C862.057 383.204 862.078 383.178 862.102 383.154C862.118 383.128 862.138 383.103 862.16 383.082C862.181 383.06 862.202 383.032 862.228 383.004C862.239 382.986 862.254 382.971 862.27 382.959C862.312 382.909 862.357 382.862 862.407 382.82C862.594 382.637 862.794 382.469 863.005 382.318C863.078 382.268 863.157 382.218 863.231 382.162C863.76 381.826 864.317 381.542 864.895 381.315C865.094 381.237 865.294 381.164 865.509 381.086C865.587 381.064 865.661 381.036 865.74 381.008C865.855 380.969 865.971 380.93 866.091 380.902C866.69 380.713 867.335 380.551 868.034 380.4C868.117 380.384 868.207 380.367 868.296 380.345C868.422 380.317 868.553 380.295 868.684 380.272C868.863 380.239 869.047 380.205 869.23 380.172C870.789 379.91 872.558 379.715 874.511 379.587C874.694 379.575 874.878 379.564 875.062 379.553C875.277 379.542 875.492 379.531 875.713 379.52C875.896 379.509 876.085 379.503 876.274 379.497C876.458 379.486 876.647 379.481 876.841 379.475C877.371 379.458 877.917 379.442 878.474 379.43C880.059 379.397 881.728 379.408 883.481 379.447C884.295 379.469 885.124 379.492 885.975 379.531C886.032 379.531 886.085 379.536 886.137 379.536C886.877 379.564 887.623 379.598 888.389 379.642C888.924 379.67 889.465 379.698 890.006 379.732C890.515 379.765 891.029 379.798 891.549 379.837C891.953 379.86 892.357 379.893 892.767 379.921C893.113 379.949 893.46 379.977 893.806 379.999L894.278 380.033C894.536 380.055 894.793 380.072 895.055 380.099C895.633 380.15 896.21 380.2 896.798 380.25C897.381 380.306 897.974 380.361 898.567 380.417C899.16 380.473 899.758 380.534 900.357 380.596C900.42 380.601 900.477 380.607 900.535 380.612C901.081 380.674 901.627 380.729 902.178 380.791C902.304 380.802 902.435 380.813 902.561 380.83C903.087 380.886 903.622 380.951 904.153 381.011C904.315 381.03 904.477 381.048 904.641 381.067C905.056 381.115 905.465 381.157 905.884 381.209C906.435 381.276 906.997 381.337 907.542 381.415C907.968 381.465 908.393 381.515 908.818 381.571C909.485 381.655 910.162 381.744 910.839 381.839C911.096 381.872 911.353 381.906 911.61 381.945C913.542 382.201 915.495 382.485 917.479 382.781C920.486 383.232 923.541 383.723 926.617 384.253C929.698 384.782 932.797 385.342 935.913 385.931C936.701 386.081 937.488 386.232 938.28 386.388C938.637 386.46 938.994 386.533 939.351 386.605C939.96 386.722 940.569 386.845 941.178 386.968C941.787 387.09 942.396 387.213 943.005 387.341C943.729 387.492 944.459 387.642 945.183 387.793C949.954 388.796 954.699 389.867 959.329 390.987C960.09 391.171 960.851 391.361 961.607 391.545C963.119 391.918 964.616 392.297 966.1 392.682C966.509 392.782 966.914 392.888 967.318 392.994C968.326 393.262 969.333 393.529 970.325 393.802L970.499 393.852C971.228 394.042 971.942 394.237 972.656 394.438C974.341 394.906 975.998 395.38 977.627 395.859C978.708 396.177 979.777 396.499 980.834 396.824C982.414 397.309 983.962 397.799 985.469 398.296C985.841 398.418 986.214 398.541 986.582 398.658C987.684 399.02 988.77 399.388 989.825 399.756C990.665 400.046 991.484 400.342 992.292 400.637C993.101 400.933 993.893 401.228 994.67 401.523C995.169 401.713 995.662 401.914 996.156 402.103C996.864 402.382 997.562 402.661 998.245 402.939C998.455 403.023 998.659 403.112 998.864 403.196C998.995 403.257 999.121 403.307 999.247 403.363C999.494 403.469 999.746 403.569 999.987 403.675C1000.23 403.776 1000.48 403.882 1000.72 403.993C1000.95 404.093 1001.19 404.199 1001.43 404.305C1001.66 404.406 1001.89 404.512 1002.12 404.623C1002.32 404.707 1002.51 404.796 1002.69 404.885C1003.06 405.058 1003.44 405.231 1003.8 405.409C1003.98 405.498 1004.16 405.582 1004.33 405.671L1004.74 405.872C1004.8 405.905 1004.86 405.933 1004.92 405.961C1005.05 406.028 1005.18 406.1 1005.32 406.167C1005.62 406.318 1005.92 406.48 1006.21 406.63C1006.61 406.842 1006.99 407.054 1007.36 407.26C1007.73 407.472 1008.09 407.684 1008.44 407.89C1008.5 407.923 1008.55 407.957 1008.61 407.99C1008.69 408.035 1008.76 408.085 1008.84 408.13C1009.11 408.291 1009.37 408.459 1009.62 408.62C1010.13 408.949 1010.61 409.272 1011.05 409.596C1011.15 409.668 1011.25 409.741 1011.35 409.808C1011.68 410.058 1011.99 410.304 1012.29 410.555C1012.29 410.56 1012.29 410.56 1012.29 410.56C1012.39 410.638 1012.49 410.722 1012.58 410.8C1012.66 410.878 1012.74 410.945 1012.82 411.023C1013.09 411.274 1013.35 411.513 1013.58 411.759C1013.65 411.835 1013.73 411.915 1013.8 411.999C1013.83 412.025 1013.86 412.055 1013.88 412.088C1013.99 412.199 1014.08 412.311 1014.17 412.422C1014.18 412.438 1014.2 412.454 1014.21 412.472C1014.33 412.628 1014.45 412.785 1014.56 412.941C1014.61 413.019 1014.67 413.097 1014.72 413.175C1014.78 413.27 1014.84 413.37 1014.89 413.465C1014.94 413.543 1014.98 413.626 1015.03 413.704C1015.14 413.905 1015.23 414.116 1015.31 414.334C1015.37 414.482 1015.42 414.635 1015.45 414.792C1015.49 414.94 1015.52 415.091 1015.54 415.243Z" fill="#2F2E41"/>
<path opacity="0.2" d="M1015.54 415.243C1015.54 416.219 1015.52 417.585 1015.48 419.274C1015.48 419.508 1015.47 419.748 1015.46 419.993C1015.41 422.362 1015.33 425.289 1015.22 428.595C1015.21 428.796 1015.21 428.991 1015.2 429.191C1015.05 433.228 1014.82 437.927 1014.42 445.37C1013.68 459.117 1012.39 447.259 1011.09 452.082C1007.49 449.729 1003.55 447.265 999.326 444.734C998.565 444.277 997.797 443.818 997.022 443.357C988.582 438.356 979.154 433.116 969.313 427.926C968.924 427.72 968.53 427.513 968.142 427.313C945.598 415.477 920.99 403.965 901.055 396.283C897.207 394.8 893.533 393.462 890.079 392.286C882.804 389.816 876.516 388.088 871.676 387.341C866.637 386.561 863.157 386.839 861.75 388.451C861.698 387.313 861.644 386.224 861.588 385.184C861.567 384.838 861.546 384.498 861.525 384.163C861.557 384.072 861.599 383.984 861.64 383.896C861.646 383.883 861.65 383.87 861.656 383.857C861.666 383.828 861.678 383.8 861.693 383.773C861.708 383.739 861.726 383.705 861.745 383.673C861.762 383.633 861.783 383.596 861.808 383.561C861.855 383.483 861.908 383.4 861.966 383.322C862.008 383.263 862.054 383.207 862.102 383.154C862.118 383.128 862.138 383.103 862.16 383.082C862.181 383.06 862.202 383.032 862.228 383.004C862.239 382.986 862.254 382.971 862.27 382.959C862.312 382.909 862.357 382.862 862.407 382.82C862.594 382.637 862.794 382.469 863.005 382.318C863.078 382.268 863.157 382.218 863.231 382.162C863.76 381.826 864.317 381.542 864.895 381.315C865.094 381.237 865.294 381.164 865.509 381.086C865.587 381.064 865.661 381.036 865.74 381.008C865.855 380.969 865.971 380.93 866.091 380.902C866.69 380.713 867.335 380.551 868.034 380.4C868.243 380.356 868.464 380.311 868.684 380.272C868.863 380.239 869.047 380.205 869.23 380.172C870.789 379.91 872.558 379.715 874.511 379.587C874.694 379.575 874.878 379.564 875.062 379.553C875.277 379.542 875.492 379.531 875.713 379.52C875.896 379.508 876.085 379.503 876.274 379.497C876.458 379.486 876.647 379.481 876.841 379.475C877.371 379.458 877.917 379.442 878.474 379.43C880.059 379.403 881.728 379.414 883.481 379.453C884.295 379.469 885.124 379.497 885.975 379.536C886.027 379.536 886.085 379.542 886.137 379.542C886.877 379.564 887.628 379.603 888.389 379.642C888.924 379.67 889.465 379.698 890.006 379.731C890.515 379.765 891.029 379.798 891.549 379.837C891.953 379.86 892.357 379.893 892.767 379.921C893.113 379.949 893.46 379.977 893.806 379.999C894.221 380.033 894.635 380.066 895.055 380.099C895.633 380.15 896.21 380.2 896.798 380.25C897.381 380.306 897.974 380.361 898.567 380.417C899.16 380.473 899.758 380.534 900.357 380.596C900.42 380.601 900.477 380.607 900.535 380.612C901.081 380.674 901.627 380.729 902.178 380.791C905.233 381.12 908.377 381.504 911.61 381.945C913.542 382.207 915.498 382.487 917.479 382.786C920.487 383.238 923.541 383.729 926.617 384.253C929.699 384.782 932.797 385.342 935.913 385.931C936.701 386.081 937.488 386.232 938.281 386.388C939.246 386.577 940.212 386.771 941.178 386.968C941.787 387.09 942.396 387.213 943.005 387.341C943.729 387.492 944.459 387.642 945.183 387.793C949.954 388.796 954.699 389.867 959.329 390.987C960.09 391.171 960.851 391.361 961.607 391.545C963.119 391.918 964.616 392.297 966.1 392.682C966.51 392.788 966.914 392.894 967.318 393C968.331 393.267 969.333 393.535 970.326 393.802V393.808C970.383 393.819 970.441 393.836 970.499 393.853C971.223 394.048 971.942 394.243 972.656 394.443C974.341 394.912 975.998 395.384 977.627 395.859C978.708 396.183 979.779 396.501 980.834 396.824C982.414 397.315 983.962 397.805 985.469 398.296C985.842 398.418 986.214 398.541 986.582 398.658C987.684 399.026 988.765 399.392 989.826 399.756C990.665 400.046 991.484 400.342 992.293 400.637C993.101 400.933 993.893 401.228 994.67 401.524C995.174 401.713 995.668 401.908 996.156 402.098C996.87 402.376 997.562 402.655 998.245 402.94C998.455 403.023 998.66 403.112 998.864 403.196C999.247 403.352 999.62 403.514 999.988 403.675C1000.23 403.776 1000.48 403.882 1000.72 403.993C1000.95 404.094 1001.19 404.199 1001.43 404.305C1001.66 404.406 1001.89 404.512 1002.12 404.623C1002.32 404.707 1002.51 404.796 1002.69 404.885C1003.06 405.058 1003.44 405.231 1003.8 405.409C1003.98 405.498 1004.16 405.582 1004.33 405.671L1004.74 405.872C1004.8 405.905 1004.86 405.933 1004.92 405.961C1005.36 406.184 1005.79 406.407 1006.21 406.63C1006.61 406.842 1006.99 407.054 1007.36 407.26C1007.79 407.505 1008.21 407.745 1008.61 407.99C1008.69 408.035 1008.76 408.085 1008.84 408.13C1009.11 408.291 1009.37 408.459 1009.62 408.62C1010.13 408.949 1010.61 409.272 1011.05 409.596C1011.49 409.919 1011.9 410.237 1012.29 410.555C1012.29 410.56 1012.29 410.56 1012.29 410.56C1012.47 410.716 1012.65 410.872 1012.82 411.023C1013.09 411.274 1013.35 411.514 1013.58 411.759C1013.65 411.835 1013.73 411.915 1013.8 411.999C1013.83 412.025 1013.86 412.055 1013.88 412.088C1013.99 412.216 1014.1 412.344 1014.21 412.472C1014.33 412.629 1014.45 412.785 1014.56 412.941C1014.61 413.019 1014.67 413.097 1014.72 413.175C1014.78 413.27 1014.84 413.37 1014.89 413.465C1014.94 413.543 1014.98 413.626 1015.03 413.705C1015.14 413.905 1015.23 414.116 1015.31 414.334C1015.37 414.483 1015.41 414.636 1015.45 414.792C1015.49 414.94 1015.52 415.091 1015.54 415.243Z" fill="black"/>
</g>
<defs>
<filter id="filter0_b_110_945" x="-10" y="134" width="1184" height="365" filterUnits="userSpaceOnUse" color-interpolation-filters="sRGB">
<feFlood flood-opacity="0" result="BackgroundImageFix"/>
<feGaussianBlur in="BackgroundImageFix" stdDeviation="5"/>
<feComposite in2="SourceAlpha" operator="in" result="effect1_backgroundBlur_110_945"/>
<feBlend mode="normal" in="SourceGraphic" in2="effect1_backgroundBlur_110_945" result="shape"/>
</filter>
<filter id="filter1_f_110_945" x="820" y="0" width="501" height="517" filterUnits="userSpaceOnUse" color-interpolation-filters="sRGB">
<feFlood flood-opacity="0" result="BackgroundImageFix"/>
<feBlend mode="normal" in="SourceGraphic" in2="BackgroundImageFix" result="shape"/>
<feGaussianBlur stdDeviation="78.5" result="effect1_foregroundBlur_110_945"/>
</filter>
<filter id="filter2_f_110_945" x="653" y="136" width="514" height="489" filterUnits="userSpaceOnUse" color-interpolation-filters="sRGB">
<feFlood flood-opacity="0" result="BackgroundImageFix"/>
<feBlend mode="normal" in="SourceGraphic" in2="BackgroundImageFix" result="shape"/>
<feGaussianBlur stdDeviation="78.5" result="effect1_foregroundBlur_110_945"/>
</filter>
<filter id="filter3_f_110_945" x="62" y="293" width="237" height="55" filterUnits="userSpaceOnUse" color-interpolation-filters="sRGB">
<feFlood flood-opacity="0" result="BackgroundImageFix"/>
<feBlend mode="normal" in="SourceGraphic" in2="BackgroundImageFix" result="shape"/>
<feGaussianBlur stdDeviation="12" result="effect1_foregroundBlur_110_945"/>
</filter>
<filter id="filter4_f_110_945" x="50" y="280" width="263" height="81" filterUnits="userSpaceOnUse" color-interpolation-filters="sRGB">
<feFlood flood-opacity="0" result="BackgroundImageFix"/>
<feBlend mode="normal" in="SourceGraphic" in2="BackgroundImageFix" result="shape"/>
<feGaussianBlur stdDeviation="18.5" result="effect1_foregroundBlur_110_945"/>
</filter>
<linearGradient id="paint0_linear_110_945" x1="86" y1="317" x2="275" y2="317" gradientUnits="userSpaceOnUse">
<stop stop-color="#FFF068"/>
<stop offset="0.151042" stop-color="#DBFF00"/>
<stop offset="0.291667" stop-color="#70FF00"/>
<stop offset="0.421875" stop-color="#00FFD1"/>
<stop offset="0.572917" stop-color="#00A3FF"/>
<stop offset="0.708333" stop-color="#FA00FF"/>
<stop offset="0.817708" stop-color="#FF8A00"/>
<stop offset="0.921875" stop-color="#FF0000"/>
</linearGradient>
<linearGradient id="paint1_linear_110_945" x1="86" y1="317" x2="275" y2="317" gradientUnits="userSpaceOnUse">
<stop stop-color="#FFF068"/>
<stop offset="0.151042" stop-color="#DBFF00"/>
<stop offset="0.291667" stop-color="#70FF00"/>
<stop offset="0.421875" stop-color="#00FFD1"/>
<stop offset="0.572917" stop-color="#00A3FF"/>
<stop offset="0.708333" stop-color="#FA00FF"/>
<stop offset="0.817708" stop-color="#FF8A00"/>
<stop offset="0.921875" stop-color="#FF0000"/>
</linearGradient>
<linearGradient id="paint2_linear_110_945" x1="86" y1="317" x2="275" y2="317" gradientUnits="userSpaceOnUse">
<stop stop-color="#FFF068"/>
<stop offset="0.151042" stop-color="#DBFF00"/>
<stop offset="0.291667" stop-color="#70FF00"/>
<stop offset="0.421875" stop-color="#00FFD1"/>
<stop offset="0.572917" stop-color="#00A3FF"/>
<stop offset="0.708333" stop-color="#FA00FF"/>
<stop offset="0.817708" stop-color="#FF8A00"/>
<stop offset="0.921875" stop-color="#FF0000"/>
</linearGradient>
<linearGradient id="paint3_linear_110_945" x1="87" y1="317" x2="276" y2="317" gradientUnits="userSpaceOnUse">
<stop stop-color="#FFF068"/>
<stop offset="0.151042" stop-color="#DBFF00"/>
<stop offset="0.291667" stop-color="#70FF00"/>
<stop offset="0.421875" stop-color="#00FFD1"/>
<stop offset="0.572917" stop-color="#00A3FF"/>
<stop offset="0.708333" stop-color="#FA00FF"/>
<stop offset="0.817708" stop-color="#FF8A00"/>
<stop offset="0.921875" stop-color="#FF0000"/>
</linearGradient>
<clipPath id="clip0_110_945">
<rect width="413" height="319.024" fill="white" transform="translate(730 158)"/>
</clipPath>
</defs>
</svg>
